<svg xmlns="http://www.w3.org/2000/svg" viewBox="0 0 6108 2100" width="6108" height="2100" role="img" aria-label="Avante">
  <title>Avante</title>
  <defs>
    <linearGradient id="avanteA" x1="60" y1="0" x2="1356" y2="0" gradientUnits="userSpaceOnUse">
      <stop offset="0.0%" stop-color="#FAB437"/>
      <stop offset="17.0%" stop-color="#F9B437"/>
      <stop offset="34.0%" stop-color="#E47A5C"/>
      <stop offset="50.0%" stop-color="#B05B8D"/>
      <stop offset="65.0%" stop-color="#7C4B98"/>
      <stop offset="83.0%" stop-color="#454697"/>
      <stop offset="100.0%" stop-color="#304B9B"/>
    </linearGradient>
  </defs>
  <path d="M 816.50 59.20 c -6.300 0.900 -18.900 4.400 -21.500 5.900 -0.800 0.500 -3.300 1.800 -5.500 2.900 -14.800 7.300 -28.300 21.400 -36.100 37.700 -4.100 8.700 -5.500 11.900 -8.400 20.300 -0.700 1.900 -2.100 5.300 -3.100 7.500 -1.000 2.200 -2.800 6.700 -3.900 10.000 -1.200 3.300 -3.000 7.800 -4.000 10.000 -1.100 2.200 -2.900 6.700 -4.100 10.000 -1.200 3.300 -3.000 7.800 -4.000 10.100 -1.100 2.300 -1.900 4.600 -1.900 5.200 0.000 0.600 -0.900 3.100 -1.900 5.400 -2.700 6.200 -5.600 13.500 -8.100 20.300 -1.200 3.300 -3.000 7.800 -4.000 10.000 -1.000 2.200 -2.800 6.700 -4.000 10.000 -1.200 3.300 -3.100 8.200 -4.200 11.000 -4.100 10.100 -5.700 14.100 -7.800 20.000 -1.200 3.300 -3.000 7.800 -4.000 10.000 -1.000 2.200 -2.800 6.700 -4.000 10.000 -2.500 6.800 -5.400 14.100 -8.100 20.300 -1.000 2.300 -1.900 5.000 -1.900 6.000 0.000 1.000 -0.700 2.700 -1.500 4.000 -0.900 1.200 -2.200 4.100 -3.000 6.400 -0.700 2.400 -2.300 6.800 -3.500 9.800 -1.200 3.000 -2.900 7.300 -3.600 9.500 -0.800 2.200 -2.100 5.300 -2.900 7.000 -0.700 1.600 -2.400 5.700 -3.600 9.000 -2.700 7.600 -5.600 14.800 -8.000 20.300 -1.000 2.300 -1.900 5.000 -1.900 6.000 0.000 1.000 -0.700 2.700 -1.500 4.000 -0.900 1.200 -2.200 4.100 -3.000 6.400 -0.700 2.400 -2.300 6.800 -3.500 9.800 -1.200 3.000 -2.900 7.300 -3.600 9.500 -0.800 2.200 -2.100 5.300 -2.900 7.000 -0.700 1.600 -2.400 5.700 -3.600 9.000 -2.700 7.600 -5.600 14.800 -8.000 20.300 -1.000 2.300 -1.900 4.900 -1.900 5.800 0.000 0.800 -0.900 3.200 -1.900 5.200 -1.100 2.000 -2.900 6.400 -4.100 9.700 -1.200 3.300 -3.000 7.900 -4.100 10.300 -1.000 2.300 -1.900 4.900 -1.900 5.800 0.000 0.800 -0.900 3.200 -1.900 5.200 -1.100 2.000 -2.900 6.400 -4.100 9.700 -1.200 3.300 -3.000 8.000 -4.000 10.500 -1.000 2.500 -2.800 7.200 -4.000 10.500 -1.200 3.300 -3.000 7.800 -4.000 10.000 -1.000 2.200 -2.800 6.700 -4.000 10.000 -1.200 3.300 -3.000 7.900 -4.100 10.300 -1.000 2.300 -1.900 4.800 -1.900 5.400 0.000 0.600 -0.900 2.900 -1.900 5.200 -1.100 2.300 -2.900 6.800 -4.100 10.100 -2.900 7.700 -5.700 14.900 -8.100 20.300 -1.000 2.300 -1.900 5.000 -1.900 6.000 0.000 0.900 -0.900 3.000 -2.000 4.700 -1.100 1.600 -2.000 3.800 -2.000 4.700 0.000 1.000 -0.900 3.700 -1.900 6.000 -1.100 2.400 -2.900 7.000 -4.100 10.300 -1.200 3.300 -3.000 7.800 -4.000 10.000 -1.000 2.200 -2.300 5.600 -3.000 7.500 -3.200 9.000 -4.200 11.700 -5.400 14.500 -0.800 1.600 -2.400 5.700 -3.600 9.000 -1.200 3.300 -3.000 7.900 -4.100 10.300 -1.000 2.300 -1.900 4.900 -1.900 5.800 0.000 0.800 -0.900 3.200 -1.900 5.200 -1.000 2.000 -2.400 5.300 -3.100 7.200 -2.900 8.200 -4.100 11.700 -5.400 14.500 -0.800 1.600 -2.400 5.700 -3.600 9.000 -1.200 3.300 -3.000 7.900 -4.100 10.300 -1.000 2.300 -1.900 5.000 -1.900 5.800 0.000 0.900 -0.700 2.800 -1.500 4.200 -1.400 2.500 -2.100 4.400 -5.500 14.200 -0.700 1.900 -2.100 5.200 -3.100 7.200 -1.000 2.000 -1.900 4.400 -1.900 5.200 0.000 0.900 -0.900 3.500 -1.900 5.800 -1.100 2.400 -3.000 7.000 -4.200 10.300 -1.200 3.300 -3.000 7.800 -4.000 10.100 -1.100 2.300 -1.900 4.600 -1.900 5.100 0.000 1.100 -3.300 10.000 -5.500 14.800 -0.800 1.600 -2.200 5.000 -3.100 7.500 -3.400 9.500 -5.300 14.700 -7.400 20.000 -1.200 3.000 -3.000 7.700 -4.000 10.500 -1.000 2.700 -2.700 7.200 -3.800 10.000 -1.100 2.700 -2.600 6.600 -3.200 8.500 -0.700 1.900 -1.900 4.800 -2.600 6.500 -1.200 2.800 -2.300 5.600 -5.400 14.500 -0.700 1.900 -1.900 4.800 -2.600 6.500 -0.700 1.600 -2.100 5.000 -3.000 7.500 -3.400 9.500 -5.300 14.700 -7.400 20.000 -1.200 3.000 -3.000 7.700 -4.000 10.500 -1.000 2.700 -2.700 7.200 -3.800 10.000 -1.100 2.700 -2.600 6.600 -3.200 8.500 -0.700 1.900 -1.900 4.800 -2.600 6.500 -0.700 1.600 -2.000 4.800 -2.800 7.000 -0.700 2.200 -1.900 5.600 -2.600 7.500 -0.700 1.900 -2.100 5.300 -3.100 7.600 -1.100 2.300 -1.900 4.700 -1.900 5.400 0.000 0.700 -0.800 3.100 -1.900 5.400 -2.100 4.600 -5.600 13.800 -6.700 17.600 -0.300 1.400 -1.300 3.400 -2.000 4.500 -0.800 1.100 -1.400 2.700 -1.400 3.700 0.000 1.000 -0.900 3.700 -1.900 6.000 -1.100 2.400 -3.000 7.000 -4.200 10.300 -1.200 3.300 -2.900 8.000 -3.900 10.500 -1.000 2.500 -2.700 7.000 -3.800 10.000 -3.900 10.700 -6.500 17.600 -8.200 22.000 -1.700 4.300 -3.600 9.300 -8.100 21.700 -1.200 3.200 -2.700 7.100 -3.500 8.800 -0.800 1.600 -1.800 4.300 -2.300 6.000 -0.500 1.600 -2.000 5.900 -3.400 9.500 -1.400 3.600 -3.100 8.100 -3.700 10.000 -0.700 1.900 -1.900 4.800 -2.600 6.500 -0.800 1.600 -1.800 4.300 -2.300 6.000 -0.500 1.600 -2.000 5.900 -3.400 9.500 -1.400 3.600 -3.100 8.100 -3.700 10.000 -0.700 1.900 -1.900 4.800 -2.600 6.500 -0.800 1.600 -1.800 4.300 -2.300 6.000 -0.500 1.600 -2.000 5.900 -3.400 9.500 -1.400 3.600 -3.100 8.100 -3.700 10.000 -0.700 1.900 -1.900 4.800 -2.600 6.500 -0.800 1.600 -1.800 4.300 -2.300 6.000 -0.500 1.600 -2.100 6.100 -3.600 10.000 -1.500 3.800 -3.300 8.800 -4.100 11.000 -0.800 2.200 -2.100 5.300 -2.800 7.000 -0.700 1.600 -1.900 4.600 -2.600 6.500 -0.600 1.900 -1.700 4.800 -2.200 6.500 -0.600 1.600 -1.900 4.800 -2.900 7.100 -1.100 2.300 -1.900 4.800 -1.900 5.500 0.000 0.800 -0.900 3.100 -2.000 5.200 -1.100 2.000 -2.000 4.300 -2.000 5.100 0.000 1.200 -0.900 3.800 -6.000 16.600 -0.900 2.500 -2.300 6.100 -3.000 8.000 -2.000 5.700 -4.700 13.100 -7.500 20.500 -1.400 3.800 -3.100 8.600 -3.700 10.500 -0.600 1.900 -1.700 4.400 -2.400 5.500 -0.800 1.100 -1.400 2.700 -1.400 3.700 0.000 1.000 -0.800 3.700 -1.900 6.000 -1.000 2.400 -2.400 5.800 -3.000 7.500 -2.900 8.400 -3.500 10.100 -5.200 13.900 -1.100 2.300 -1.900 5.000 -1.900 6.000 0.000 1.100 -0.600 2.800 -1.400 3.900 -0.700 1.100 -1.800 3.600 -2.400 5.500 -0.600 1.900 -2.200 6.600 -3.700 10.500 -1.400 3.800 -3.500 9.500 -4.700 12.500 -2.400 6.600 -4.800 13.100 -8.300 22.500 -1.400 3.800 -3.100 8.600 -3.700 10.500 -0.600 1.900 -1.700 4.400 -2.400 5.500 -0.800 1.100 -1.400 2.800 -1.400 3.900 0.000 1.000 -0.800 3.700 -1.900 6.000 -1.700 3.800 -2.700 6.400 -5.300 14.100 -0.600 1.600 -1.900 4.900 -2.900 7.300 -1.100 2.300 -1.900 5.000 -1.900 6.000 0.000 1.000 -0.600 2.600 -1.400 3.700 -0.700 1.100 -1.800 3.600 -2.400 5.500 -0.600 1.900 -2.400 7.300 -4.200 12.000 -1.700 4.700 -3.600 10.100 -4.200 12.000 -0.600 1.900 -1.700 4.400 -2.400 5.500 -0.800 1.100 -1.400 2.900 -1.400 4.000 0.000 1.100 -0.700 3.300 -1.600 5.000 -0.900 1.600 -2.000 4.300 -2.400 6.000 -0.400 1.600 -2.000 6.100 -3.500 10.000 -1.500 3.800 -3.400 9.200 -4.200 12.000 -0.900 2.700 -2.200 5.900 -2.900 7.000 -0.800 1.100 -1.400 2.900 -1.400 4.000 0.000 1.100 -0.700 3.300 -1.600 5.000 -0.900 1.600 -2.000 4.300 -2.400 6.000 -0.400 1.600 -1.900 5.900 -3.300 9.500 -1.400 3.600 -3.100 8.100 -3.700 10.000 -0.700 1.900 -2.000 5.500 -3.000 8.000 -1.000 2.500 -2.200 5.800 -2.800 7.500 -2.500 7.300 -3.600 10.300 -5.200 14.500 -1.000 2.500 -2.200 5.800 -2.800 7.500 -0.500 1.600 -1.600 4.600 -2.200 6.500 -0.700 1.900 -2.100 5.400 -3.100 7.800 -1.100 2.300 -1.900 4.900 -1.900 5.800 0.000 0.800 -0.700 2.900 -1.700 4.700 -0.900 1.800 -2.000 4.500 -2.400 6.200 -0.400 1.600 -1.900 6.100 -3.400 10.000 -1.500 3.800 -3.400 9.200 -4.200 12.000 -0.900 2.700 -2.200 5.900 -2.900 7.000 -0.800 1.100 -1.400 2.900 -1.400 4.000 0.000 1.100 -0.700 3.300 -1.600 5.000 -0.900 1.600 -2.000 4.300 -2.400 6.000 -0.500 1.600 -2.200 6.800 -4.000 11.500 -1.700 4.700 -3.600 9.900 -4.100 11.700 -0.500 1.800 -1.600 4.500 -2.400 6.000 -0.800 1.500 -1.500 3.600 -1.500 4.600 0.000 1.100 -0.700 3.100 -1.500 4.500 -1.500 2.800 -5.000 12.400 -6.400 17.700 -0.400 1.700 -1.400 4.200 -2.100 5.500 -0.700 1.300 -1.700 3.800 -2.100 5.500 -1.100 4.200 -4.700 14.400 -6.500 18.200 -0.700 1.700 -1.400 3.600 -1.400 4.300 0.000 0.700 -0.700 2.600 -1.400 4.300 -1.800 3.800 -5.400 14.000 -6.500 18.200 -0.400 1.700 -1.400 4.200 -2.100 5.500 -0.700 1.300 -1.700 3.800 -2.100 5.500 -1.100 4.200 -4.700 14.400 -6.500 18.200 -0.700 1.700 -1.400 3.800 -1.400 4.700 0.000 0.900 -0.900 3.300 -2.000 5.300 -1.100 2.100 -2.000 4.700 -2.000 5.800 0.000 1.100 -0.700 3.300 -1.600 5.000 -0.900 1.600 -2.000 4.300 -2.400 6.000 -1.000 3.900 -3.800 12.000 -5.700 16.500 -0.900 1.900 -2.100 5.500 -2.800 8.000 -1.600 5.600 -4.100 12.500 -6.000 16.700 -0.800 1.700 -1.500 3.900 -1.500 5.000 -0.100 1.000 -0.900 3.600 -2.000 5.800 -1.100 2.200 -2.000 4.700 -2.000 5.500 0.000 0.800 -0.900 3.300 -2.000 5.500 -1.100 2.200 -2.000 4.900 -2.000 6.000 0.000 1.100 -0.700 3.300 -1.600 5.000 -2.000 3.900 -4.200 14.500 -4.900 24.200 -0.900 10.800 2.000 33.200 5.000 38.900 0.800 1.600 1.500 3.700 1.500 4.700 0.000 1.000 1.000 3.700 2.200 6.000 1.200 2.300 2.800 5.500 3.600 7.200 5.100 10.300 13.100 19.700 20.000 23.300 13.700 7.100 30.800 -3.500 51.500 -31.900 6.700 -9.200 10.100 -14.200 13.400 -19.700 2.100 -3.500 4.500 -7.400 5.300 -8.700 0.800 -1.300 3.000 -5.000 4.800 -8.200 1.800 -3.200 3.700 -6.500 4.200 -7.300 1.500 -2.300 15.600 -29.800 20.200 -39.300 0.400 -0.900 1.200 -2.500 1.700 -3.500 1.700 -3.600 7.600 -16.600 11.100 -24.700 1.000 -2.200 2.700 -6.100 3.900 -8.600 1.200 -2.500 2.100 -5.000 2.100 -5.500 0.000 -0.500 0.900 -2.700 1.900 -4.900 2.200 -4.600 5.900 -12.600 7.700 -17.000 0.700 -1.700 3.400 -8.000 6.000 -14.000 2.500 -6.100 5.200 -12.400 6.000 -14.000 0.700 -1.700 3.400 -8.000 6.000 -14.000 2.500 -6.100 5.200 -12.400 6.000 -14.000 0.700 -1.700 3.400 -8.000 6.000 -14.000 2.600 -6.100 5.400 -12.800 6.400 -15.000 0.900 -2.200 2.700 -6.500 3.900 -9.500 2.300 -5.600 4.200 -9.900 8.000 -18.100 1.200 -2.500 2.100 -5.000 2.100 -5.500 0.000 -0.500 1.000 -2.900 2.100 -5.400 2.800 -5.800 5.200 -11.200 7.900 -18.000 2.700 -6.800 5.100 -12.200 7.900 -18.000 1.100 -2.500 2.100 -4.900 2.100 -5.400 0.000 -0.500 0.900 -2.700 1.900 -5.000 2.000 -4.300 7.100 -16.200 14.200 -33.100 2.300 -5.500 4.900 -11.800 5.900 -14.000 0.900 -2.200 2.700 -6.500 3.900 -9.500 1.300 -3.000 3.100 -7.300 4.100 -9.500 1.000 -2.200 2.800 -6.500 4.000 -9.500 1.200 -3.000 3.000 -7.300 4.000 -9.500 1.000 -2.200 2.700 -6.300 3.800 -9.000 4.500 -10.800 10.500 -25.200 12.300 -29.100 1.100 -2.200 1.900 -4.500 1.900 -5.000 0.000 -0.500 0.900 -2.800 2.000 -5.200 1.100 -2.300 2.900 -6.100 4.000 -8.500 1.100 -2.300 2.000 -4.600 2.000 -5.100 0.000 -0.500 0.900 -2.700 1.900 -5.000 3.500 -7.500 10.100 -23.300 10.100 -24.200 0.000 -0.500 0.900 -2.800 2.000 -5.200 1.100 -2.300 2.900 -6.100 4.000 -8.500 1.100 -2.300 2.000 -4.600 2.000 -5.100 0.000 -0.800 6.200 -15.700 10.100 -24.200 1.100 -2.200 1.900 -4.600 1.900 -5.300 0.000 -0.600 0.900 -2.900 1.900 -4.900 1.100 -2.000 2.800 -6.000 4.000 -8.700 4.900 -12.200 10.400 -25.300 12.200 -29.100 1.000 -2.300 1.900 -4.700 1.900 -5.500 0.000 -0.800 0.900 -2.800 2.000 -4.400 1.100 -1.700 2.000 -3.700 2.000 -4.500 0.000 -0.800 0.900 -3.300 1.900 -5.500 1.100 -2.200 2.900 -6.500 4.100 -9.500 1.200 -3.000 3.000 -7.300 4.000 -9.500 1.000 -2.200 2.800 -6.500 4.000 -9.500 1.200 -3.000 3.000 -7.200 4.100 -9.200 1.000 -2.000 1.900 -4.300 1.900 -5.000 0.000 -0.700 0.900 -3.100 1.900 -5.300 1.100 -2.200 2.900 -6.500 4.100 -9.500 1.200 -3.000 3.000 -7.200 4.100 -9.200 1.000 -2.000 1.900 -4.200 1.900 -4.900 0.000 -0.600 0.900 -3.000 1.900 -5.300 3.500 -7.500 10.100 -23.300 10.100 -24.200 0.000 -0.500 0.900 -2.700 1.900 -4.900 1.100 -2.200 2.900 -6.500 4.100 -9.500 3.600 -8.900 3.200 -8.500 9.100 -8.200 3.000 0.200 8.700 0.700 12.800 1.300 4.000 0.500 12.500 1.400 18.800 1.900 6.400 0.600 13.400 1.500 15.700 2.000 2.200 0.600 9.500 1.700 16.100 2.500 36.300 4.600 87.600 15.300 130.000 27.300 13.600 3.900 21.100 6.100 27.800 8.100 3.700 1.200 9.500 3.000 13.000 4.000 3.400 1.000 7.800 2.400 9.700 3.100 1.900 0.700 5.800 2.000 8.500 2.900 2.800 1.000 7.300 2.500 10.000 3.500 2.800 1.000 6.400 2.100 8.000 2.500 1.700 0.500 4.400 1.600 6.000 2.500 1.700 0.900 3.800 1.600 4.800 1.600 0.900 -0.000 3.400 0.900 5.400 2.000 2.100 1.100 4.400 2.000 5.100 2.000 1.600 -0.000 10.400 3.500 15.400 6.100 2.000 1.000 4.200 1.900 4.900 1.900 1.000 -0.000 11.300 4.200 23.400 9.500 1.700 0.800 5.700 2.500 9.000 4.000 8.800 3.800 13.100 5.800 21.700 9.800 4.200 2.100 8.000 3.700 8.400 3.700 0.400 -0.000 4.800 2.000 9.800 4.400 5.000 2.400 10.200 4.900 11.600 5.500 1.400 0.600 3.200 1.500 4.000 1.900 2.600 1.500 7.100 3.900 17.500 9.300 5.500 2.800 12.000 6.300 14.500 7.700 2.500 1.300 7.900 4.300 12.000 6.500 15.400 8.200 14.700 7.800 24.500 13.800 3.000 1.900 7.300 4.200 13.200 7.300 1.800 1.000 3.500 2.200 3.800 2.700 0.400 0.500 2.100 1.600 3.800 2.400 1.800 0.800 4.100 2.000 5.200 2.700 1.000 0.700 5.800 3.700 10.500 6.700 12.700 8.000 16.200 10.200 19.200 12.300 1.500 1.000 2.900 1.800 3.200 1.800 0.300 -0.000 2.600 1.500 5.100 3.200 2.600 1.800 5.400 3.800 6.300 4.300 1.000 0.600 3.700 2.400 6.100 4.000 2.400 1.700 5.100 3.400 6.000 4.000 0.800 0.500 5.100 3.600 9.600 6.700 4.400 3.100 9.500 6.700 11.300 8.000 1.800 1.300 3.900 2.800 4.500 3.300 0.700 0.600 3.200 2.400 5.700 4.000 2.500 1.700 6.900 4.800 9.800 7.000 6.800 5.200 29.700 22.900 34.100 26.300 12.900 10.200 17.100 13.700 26.300 21.200 36.900 30.400 94.700 85.800 122.100 117.200 12.900 14.700 21.100 22.800 23.400 22.800 0.500 -0.000 1.800 0.900 2.800 2.000 1.000 1.100 2.400 2.000 3.200 2.000 0.800 -0.000 3.000 0.800 5.100 1.900 2.000 1.000 7.200 2.400 11.400 3.100 11.400 1.900 31.100 -0.000 36.000 -3.400 1.200 -0.900 2.800 -1.600 3.500 -1.600 2.100 -0.000 12.500 -7.600 17.400 -12.700 5.300 -5.500 11.900 -14.700 11.900 -16.600 0.000 -0.700 0.700 -2.300 1.600 -3.500 2.500 -3.600 4.600 -14.800 4.600 -24.200 0.000 -8.500 -1.800 -18.200 -6.200 -32.500 -1.200 -3.900 -3.000 -10.200 -4.000 -14.000 -1.000 -3.900 -2.800 -10.200 -4.000 -14.000 -1.200 -3.900 -3.000 -10.200 -4.000 -14.000 -2.800 -10.400 -4.700 -17.400 -6.500 -23.500 -2.800 -9.500 -5.400 -18.200 -7.500 -26.000 -1.200 -4.100 -3.000 -10.400 -4.000 -14.000 -1.000 -3.600 -2.400 -8.300 -3.000 -10.500 -0.700 -2.200 -2.000 -7.200 -3.000 -11.000 -1.000 -3.900 -2.800 -10.200 -4.000 -14.000 -1.200 -3.900 -3.000 -10.200 -4.000 -14.000 -1.000 -3.900 -2.800 -10.200 -4.000 -14.000 -1.200 -3.900 -3.000 -10.200 -4.000 -14.000 -1.000 -3.900 -2.800 -10.200 -4.000 -14.000 -1.200 -3.900 -3.000 -10.200 -4.000 -14.000 -1.000 -3.900 -2.800 -10.200 -4.000 -14.000 -1.200 -3.900 -3.000 -10.200 -4.000 -14.000 -1.000 -3.900 -2.800 -9.900 -3.800 -13.500 -1.100 -3.600 -2.500 -8.300 -3.200 -10.500 -0.600 -2.200 -2.000 -6.900 -3.000 -10.500 -1.100 -3.600 -2.900 -9.900 -4.000 -14.000 -1.200 -4.100 -3.000 -10.400 -4.100 -14.000 -3.200 -10.800 -5.900 -20.100 -7.900 -27.300 -1.100 -3.700 -2.900 -9.700 -4.000 -13.500 -1.100 -3.700 -2.900 -9.900 -4.000 -13.700 -1.200 -3.900 -3.000 -9.900 -4.000 -13.500 -1.100 -3.600 -2.800 -9.700 -3.900 -13.500 -1.900 -6.500 -3.300 -11.300 -8.300 -28.500 -1.000 -3.600 -2.800 -9.700 -3.900 -13.500 -1.200 -3.900 -2.500 -8.400 -3.100 -10.000 -0.500 -1.700 -1.800 -5.900 -2.800 -9.500 -1.000 -3.600 -2.700 -9.700 -3.800 -13.500 -1.100 -3.900 -2.600 -9.000 -3.200 -11.500 -0.700 -2.500 -1.900 -6.100 -2.600 -8.000 -0.800 -1.900 -1.800 -5.700 -2.400 -8.400 -0.600 -2.700 -1.500 -5.700 -2.100 -6.700 -0.500 -1.000 -1.400 -3.800 -1.900 -6.100 -0.500 -2.400 -1.600 -6.600 -2.500 -9.300 -0.900 -2.800 -2.500 -8.200 -3.600 -12.000 -5.000 -17.000 -9.800 -33.200 -11.100 -37.000 -0.500 -1.700 -1.800 -6.200 -2.800 -10.000 -1.700 -6.700 -2.300 -8.400 -5.000 -16.500 -0.700 -1.900 -1.900 -6.200 -2.700 -9.400 -0.800 -3.300 -1.900 -6.800 -2.400 -7.800 -0.500 -1.000 -1.400 -3.700 -1.900 -6.000 -0.500 -2.400 -1.600 -6.600 -2.500 -9.300 -1.800 -5.600 -4.400 -14.500 -7.600 -25.500 -1.200 -4.100 -2.900 -10.000 -3.900 -13.000 -0.900 -3.000 -2.700 -8.800 -3.900 -12.800 -6.500 -22.200 -10.000 -33.800 -11.300 -37.700 -0.600 -1.700 -1.700 -5.700 -2.500 -8.900 -0.800 -3.300 -1.900 -6.800 -2.400 -7.800 -0.500 -1.000 -1.400 -3.700 -1.900 -6.000 -0.500 -2.400 -1.600 -6.600 -2.500 -9.300 -0.900 -2.800 -2.500 -8.200 -3.600 -12.000 -1.200 -3.900 -2.500 -8.400 -3.100 -10.000 -1.100 -3.200 -3.700 -12.400 -6.300 -22.000 -0.900 -3.300 -2.300 -7.400 -3.100 -9.200 -0.800 -1.700 -1.400 -4.100 -1.400 -5.300 0.000 -1.200 -0.500 -3.100 -1.200 -4.300 -1.000 -2.000 -2.200 -5.900 -6.300 -21.200 -0.800 -3.300 -2.000 -6.800 -2.600 -7.800 -0.500 -1.000 -1.400 -3.700 -1.900 -6.000 -0.500 -2.300 -1.600 -6.500 -2.500 -9.200 -0.900 -2.800 -2.400 -7.900 -3.500 -11.500 -1.100 -3.600 -2.600 -8.800 -3.500 -11.500 -0.900 -2.800 -2.200 -7.300 -2.900 -10.000 -0.800 -2.800 -1.900 -6.600 -2.600 -8.500 -2.700 -7.800 -3.300 -9.700 -4.600 -14.500 -0.700 -2.800 -2.000 -7.300 -2.900 -10.000 -0.900 -2.800 -2.500 -8.200 -3.700 -12.000 -4.300 -14.200 -6.100 -20.100 -7.900 -25.300 -1.100 -3.000 -1.900 -6.400 -1.900 -7.500 -0.100 -1.200 -0.900 -4.000 -2.000 -6.200 -1.100 -2.200 -1.900 -5.000 -2.000 -6.300 0.000 -1.300 -0.500 -3.300 -1.200 -4.500 -0.600 -1.200 -1.900 -5.100 -2.900 -8.700 -0.900 -3.600 -2.700 -9.700 -3.900 -13.500 -1.200 -3.900 -3.000 -9.900 -4.000 -13.500 -1.000 -3.600 -2.400 -8.100 -3.000 -10.000 -0.700 -1.900 -2.100 -5.900 -3.100 -8.800 -1.100 -3.000 -1.900 -6.400 -1.900 -7.500 -0.100 -1.200 -0.900 -4.000 -2.000 -6.200 -1.100 -2.200 -1.900 -5.000 -2.000 -6.200 0.000 -1.100 -0.800 -4.500 -1.900 -7.500 -1.000 -2.900 -2.900 -8.700 -4.100 -12.800 -1.300 -4.100 -3.100 -10.000 -4.100 -13.000 -1.000 -3.000 -2.100 -7.000 -2.400 -8.800 -0.400 -1.800 -1.300 -4.500 -2.100 -6.000 -0.800 -1.500 -1.400 -3.700 -1.400 -4.800 0.000 -1.200 -0.700 -3.900 -1.700 -6.000 -0.900 -2.200 -2.000 -5.500 -2.400 -7.400 -0.700 -3.400 -2.800 -10.100 -5.000 -16.500 -0.600 -1.700 -1.900 -5.900 -2.900 -9.500 -2.700 -9.500 -7.200 -23.900 -9.100 -29.500 -0.600 -1.700 -1.700 -5.300 -2.500 -8.000 -0.700 -2.800 -2.000 -7.300 -2.900 -10.000 -0.900 -2.800 -2.500 -8.200 -3.700 -12.000 -1.100 -3.900 -2.700 -8.600 -3.400 -10.500 -0.800 -1.900 -1.800 -5.300 -2.300 -7.500 -1.000 -3.900 -3.100 -11.000 -5.200 -17.000 -0.600 -1.700 -1.900 -5.900 -2.900 -9.500 -2.700 -9.500 -7.200 -23.900 -9.100 -29.500 -0.600 -1.700 -1.700 -5.300 -2.500 -8.000 -0.700 -2.800 -2.000 -7.300 -2.900 -10.000 -0.900 -2.800 -2.500 -8.200 -3.700 -12.000 -1.100 -3.900 -2.900 -9.200 -3.900 -11.900 -1.100 -2.700 -1.900 -5.700 -1.900 -6.600 0.000 -1.000 -0.900 -3.700 -2.000 -6.100 -1.100 -2.400 -2.000 -5.500 -2.000 -6.900 0.000 -1.400 -0.900 -4.300 -2.000 -6.500 -1.100 -2.200 -2.000 -5.100 -2.000 -6.500 0.000 -1.400 -0.900 -4.300 -2.000 -6.500 -1.100 -2.200 -1.900 -5.000 -2.000 -6.200 0.000 -1.200 -0.900 -4.200 -2.000 -6.800 -1.100 -2.600 -2.000 -5.500 -2.000 -6.500 0.000 -1.000 -0.900 -3.700 -2.000 -6.100 -1.100 -2.400 -2.000 -5.500 -2.000 -6.900 0.000 -1.400 -0.900 -4.300 -2.000 -6.500 -1.100 -2.200 -2.000 -5.100 -2.000 -6.500 0.000 -1.400 -0.900 -4.300 -2.000 -6.500 -1.100 -2.200 -1.900 -5.000 -2.000 -6.200 0.000 -1.200 -0.900 -4.200 -2.000 -6.800 -1.100 -2.600 -2.000 -5.500 -2.000 -6.500 0.000 -1.000 -0.900 -3.700 -2.000 -6.100 -1.100 -2.400 -2.000 -5.500 -2.000 -6.900 0.000 -1.400 -0.900 -4.300 -2.000 -6.500 -1.100 -2.200 -2.000 -5.100 -2.000 -6.500 0.000 -1.400 -0.900 -4.300 -2.000 -6.500 -1.100 -2.200 -1.900 -5.000 -2.000 -6.200 0.000 -1.200 -0.900 -4.200 -2.000 -6.800 -1.100 -2.600 -2.000 -5.500 -2.000 -6.500 0.000 -1.000 -0.900 -3.700 -2.000 -6.100 -1.100 -2.400 -2.000 -5.500 -2.000 -6.900 0.000 -1.400 -0.900 -4.300 -2.000 -6.500 -1.100 -2.200 -1.900 -4.900 -2.000 -5.900 0.000 -1.000 -0.900 -3.700 -1.900 -6.000 -1.100 -2.300 -2.200 -4.800 -2.500 -5.600 -0.600 -1.600 -3.300 -6.000 -7.700 -12.600 -4.600 -6.800 -18.300 -19.100 -26.300 -23.500 -8.500 -4.700 -17.900 -7.800 -28.600 -9.500 -9.500 -1.500 -15.600 -1.500 -24.500 -0.200 z m 5.300 339.100 c 0.600 0.700 1.600 3.500 2.200 6.200 0.500 2.800 1.600 6.600 2.400 8.500 2.500 6.600 3.800 10.500 5.100 15.500 0.700 2.700 2.000 6.800 2.800 9.000 0.800 2.200 2.500 7.400 3.700 11.500 1.300 4.100 2.900 9.100 3.600 11.000 0.800 1.900 1.900 5.700 2.400 8.500 0.600 2.700 1.500 5.400 2.000 6.000 0.500 0.600 1.400 3.300 2.000 6.000 0.500 2.800 1.600 6.600 2.400 8.500 2.500 6.600 3.800 10.500 5.100 15.500 0.700 2.700 2.000 6.800 2.800 9.000 0.800 2.200 2.500 7.400 3.700 11.500 1.300 4.100 2.900 9.100 3.600 11.000 0.800 1.900 1.800 5.600 2.300 8.100 0.600 2.500 1.700 5.800 2.600 7.500 0.800 1.600 1.500 3.800 1.500 4.900 0.000 1.100 0.700 3.300 1.500 4.900 0.800 1.600 2.100 5.400 2.900 8.500 0.800 3.100 2.000 7.200 2.600 9.100 2.500 6.800 4.700 13.600 7.000 21.000 1.300 4.100 3.100 9.700 4.000 12.500 4.000 11.500 6.000 18.100 6.000 19.300 0.000 0.800 0.700 2.800 1.500 4.500 0.800 1.800 2.200 5.600 3.000 8.400 0.800 2.900 2.200 7.700 3.000 10.500 0.800 2.900 2.200 6.700 3.000 8.500 0.800 1.700 1.500 3.700 1.500 4.500 0.000 0.700 1.000 4.200 2.200 7.800 3.300 10.000 5.400 16.200 6.800 20.000 0.600 1.900 1.800 5.700 2.500 8.500 1.400 5.100 3.800 12.300 6.100 18.500 0.800 1.900 1.800 5.600 2.300 8.100 0.600 2.500 1.700 5.800 2.600 7.500 0.800 1.600 1.500 3.700 1.500 4.700 0.000 1.000 0.600 3.000 1.400 4.500 0.700 1.500 1.800 5.000 2.400 7.700 0.600 2.800 1.800 6.400 2.600 8.000 0.900 1.700 1.600 3.900 1.600 5.000 0.000 1.100 0.700 3.300 1.600 5.000 0.800 1.600 1.900 4.800 2.400 7.000 0.400 2.200 1.600 6.200 2.500 9.000 3.400 9.500 5.200 15.000 7.500 22.500 1.300 4.100 3.100 9.600 4.100 12.200 1.100 2.600 1.900 5.300 1.900 6.100 0.000 0.800 0.900 3.400 2.000 5.800 1.100 2.400 2.000 5.500 2.000 6.900 0.000 1.400 0.900 4.300 2.000 6.500 1.100 2.200 2.000 4.900 2.000 6.000 0.000 1.100 0.900 3.800 2.000 6.000 1.100 2.200 2.000 4.900 2.000 6.000 0.000 1.100 0.900 3.800 2.000 6.000 1.100 2.200 2.000 5.100 2.000 6.500 0.000 1.400 0.900 4.300 2.000 6.500 1.100 2.200 2.000 4.900 2.000 6.000 0.000 1.100 0.900 3.800 2.000 6.000 1.100 2.200 2.000 4.900 2.000 6.000 0.000 1.100 0.900 3.800 2.000 6.000 1.100 2.200 2.000 4.900 2.000 6.000 0.000 1.100 0.700 3.300 1.500 4.900 0.900 1.700 2.000 5.000 2.600 7.500 0.500 2.500 1.500 6.200 2.300 8.100 2.200 5.700 4.800 13.300 5.600 16.500 0.400 1.600 1.600 5.200 2.500 8.000 3.500 9.800 5.200 15.100 7.500 22.500 1.300 4.100 3.100 9.600 4.100 12.200 1.100 2.600 1.900 5.300 1.900 6.000 0.000 0.700 0.800 3.500 1.900 6.300 3.600 9.600 5.900 16.600 9.700 30.000 0.800 2.700 2.100 6.400 2.900 8.200 0.800 1.700 1.500 3.900 1.500 5.000 0.100 1.000 0.900 3.600 2.000 5.800 1.100 2.200 1.900 4.800 2.000 5.800 0.000 1.100 0.700 3.300 1.500 5.000 0.800 1.800 2.100 5.400 2.900 8.200 0.800 2.700 2.200 7.500 3.000 10.500 0.900 3.000 2.300 6.900 3.100 8.700 0.800 1.700 1.500 3.900 1.500 5.000 0.100 1.000 0.900 3.600 2.000 5.800 1.100 2.200 2.000 4.900 2.000 6.000 0.000 1.100 0.900 3.800 2.000 6.000 1.100 2.200 2.000 4.900 2.000 6.000 0.000 1.100 0.900 3.800 2.000 6.000 1.100 2.200 1.900 4.700 2.000 5.500 0.000 1.600 3.700 13.200 9.500 29.500 0.900 2.700 2.100 6.300 2.500 8.000 0.400 1.600 1.600 5.200 2.500 8.000 1.000 2.700 2.600 7.200 3.500 10.000 0.900 2.700 2.500 7.200 3.500 10.000 0.900 2.700 2.100 6.300 2.500 8.000 0.400 1.600 1.600 5.200 2.500 8.000 1.000 2.700 2.600 7.200 3.500 10.000 0.900 2.700 2.500 7.200 3.500 10.000 0.900 2.700 2.100 6.300 2.500 8.000 0.400 1.600 1.600 5.200 2.500 8.000 1.000 2.700 2.600 7.200 3.500 10.000 0.900 2.700 2.500 7.200 3.500 10.000 0.900 2.700 2.100 6.300 2.500 8.000 0.400 1.600 1.600 5.200 2.500 8.000 3.500 9.800 5.200 15.100 7.500 22.500 1.300 4.100 3.100 9.600 4.100 12.200 1.100 2.600 1.900 5.300 1.900 6.000 0.000 0.700 0.800 3.500 1.900 6.300 2.800 7.500 4.200 11.500 5.700 16.500 0.700 2.500 2.700 8.300 4.400 13.000 1.800 4.700 3.500 9.800 4.000 11.500 0.400 1.600 1.600 5.200 2.500 8.000 1.000 2.700 2.600 7.200 3.500 10.000 0.900 2.700 2.500 7.200 3.500 10.000 0.900 2.700 2.100 6.300 2.500 8.000 0.500 1.600 2.200 7.000 4.000 11.900 1.900 5.300 2.800 9.200 2.200 9.800 -0.700 0.700 -4.500 -1.700 -13.700 -8.900 -0.500 -0.500 -2.100 -1.600 -3.500 -2.500 -1.400 -1.000 -5.000 -3.500 -8.000 -5.700 -3.000 -2.300 -8.000 -5.700 -11.000 -7.800 -3.000 -2.100 -5.700 -4.000 -6.000 -4.300 -0.500 -0.600 -10.600 -7.500 -13.900 -9.500 -0.900 -0.600 -3.600 -2.400 -6.000 -4.000 -2.400 -1.700 -5.100 -3.500 -6.000 -4.000 -0.900 -0.600 -3.600 -2.400 -6.000 -4.000 -2.400 -1.700 -5.100 -3.500 -6.000 -4.000 -0.900 -0.600 -3.600 -2.400 -6.000 -4.000 -5.400 -3.600 -11.100 -7.200 -13.100 -8.100 -0.800 -0.400 -2.300 -1.400 -3.300 -2.200 -0.900 -0.800 -2.500 -2.000 -3.600 -2.600 -1.000 -0.600 -3.600 -2.100 -5.700 -3.400 -2.200 -1.200 -5.200 -3.100 -6.900 -4.200 -1.600 -1.000 -6.300 -3.800 -10.400 -6.200 -4.000 -2.400 -9.000 -5.300 -11.000 -6.500 -2.000 -1.100 -4.700 -2.800 -6.100 -3.500 -1.400 -0.800 -4.300 -2.500 -6.500 -3.800 -2.200 -1.300 -5.700 -3.200 -7.700 -4.200 -2.000 -1.000 -4.000 -2.200 -4.300 -2.800 -0.300 -0.500 -1.400 -1.000 -2.400 -1.000 -1.000 -0.000 -2.600 -0.900 -3.600 -2.000 -1.000 -1.100 -2.600 -2.000 -3.600 -2.000 -1.000 -0.000 -2.100 -0.500 -2.400 -1.000 -0.300 -0.600 -2.300 -1.800 -4.300 -2.800 -2.000 -1.000 -4.800 -2.400 -6.200 -3.200 -1.400 -0.700 -3.300 -1.700 -4.400 -2.300 -4.000 -2.000 -9.100 -4.900 -10.100 -5.800 -0.500 -0.500 -1.600 -0.900 -2.500 -0.900 -0.800 -0.000 -2.600 -0.900 -4.000 -2.000 -1.400 -1.100 -3.200 -2.000 -4.000 -2.000 -0.800 -0.000 -2.600 -0.900 -4.000 -2.000 -1.400 -1.100 -3.200 -2.000 -4.000 -2.000 -0.800 -0.000 -2.600 -0.900 -4.000 -2.000 -1.400 -1.100 -3.200 -2.000 -4.000 -2.000 -0.800 -0.000 -2.600 -0.900 -4.000 -2.000 -1.400 -1.100 -3.200 -2.000 -4.000 -2.000 -0.800 -0.000 -2.600 -0.900 -4.000 -2.000 -1.400 -1.100 -3.400 -2.000 -4.400 -2.000 -1.100 -0.000 -2.700 -0.600 -3.500 -1.400 -0.900 -0.800 -5.600 -3.100 -10.600 -5.100 -8.700 -3.600 -17.600 -7.500 -26.000 -11.600 -2.200 -1.000 -4.400 -1.900 -4.900 -1.900 -0.500 -0.000 -2.700 -0.900 -5.000 -1.900 -8.600 -4.000 -23.400 -10.100 -24.500 -10.100 -0.700 -0.000 -2.900 -0.900 -4.900 -1.900 -2.000 -1.000 -5.300 -2.400 -7.200 -3.100 -8.100 -2.800 -11.700 -4.100 -14.500 -5.400 -1.600 -0.700 -4.500 -1.900 -6.200 -2.500 -1.800 -0.600 -4.800 -1.600 -6.500 -2.300 -1.800 -0.600 -5.500 -1.900 -8.300 -2.800 -2.700 -1.000 -6.600 -2.300 -8.500 -3.000 -1.900 -0.700 -5.500 -1.800 -8.000 -2.600 -2.500 -0.700 -6.700 -2.100 -9.500 -3.000 -2.700 -1.000 -7.200 -2.500 -10.000 -3.500 -2.700 -0.900 -8.300 -2.600 -12.200 -3.800 -16.800 -4.900 -21.100 -6.200 -27.100 -8.100 -3.400 -1.100 -6.900 -2.000 -7.700 -2.000 -0.800 -0.000 -3.600 -0.700 -6.200 -1.600 -2.600 -0.900 -7.300 -2.300 -10.300 -3.000 -3.000 -0.700 -9.100 -2.200 -13.500 -3.300 -4.400 -1.000 -10.000 -2.400 -12.500 -3.000 -2.500 -0.600 -8.500 -2.000 -13.500 -3.100 -4.900 -1.000 -11.200 -2.400 -14.000 -3.000 -16.900 -3.800 -49.600 -9.800 -65.200 -12.000 -4.000 -0.500 -10.300 -1.400 -14.000 -2.000 -18.400 -2.600 -37.800 -5.000 -41.200 -5.000 -2.100 -0.000 -5.300 -0.300 -7.000 -0.600 -3.700 -0.800 -4.100 -3.200 -1.200 -9.600 1.000 -2.400 2.800 -6.600 3.900 -9.300 1.100 -2.800 3.900 -9.300 6.100 -14.600 2.300 -5.300 4.100 -10.200 4.100 -10.800 0.000 -0.700 0.900 -2.900 1.900 -4.900 1.800 -3.500 3.400 -7.300 8.300 -19.700 1.100 -2.800 2.800 -6.700 3.900 -8.700 1.000 -2.000 1.900 -4.200 1.900 -4.900 0.000 -0.600 1.800 -5.500 4.100 -10.800 4.200 -9.900 6.700 -16.100 10.000 -24.400 4.600 -11.500 6.200 -15.500 7.900 -19.200 1.100 -2.200 2.900 -6.700 4.000 -10.000 1.200 -3.300 3.000 -7.800 4.000 -10.000 1.100 -2.200 2.900 -6.700 4.100 -10.000 1.200 -3.300 3.000 -7.800 4.000 -10.000 0.900 -2.200 2.600 -6.300 3.700 -9.000 1.100 -2.800 2.900 -7.400 4.100 -10.300 1.100 -2.800 3.000 -7.500 4.100 -10.200 1.100 -2.800 2.900 -7.400 4.100 -10.300 1.200 -2.800 2.900 -7.000 3.900 -9.200 1.000 -2.200 2.800 -6.700 4.000 -10.000 1.100 -3.300 2.900 -7.800 4.000 -10.000 1.000 -2.200 2.800 -6.700 4.000 -10.000 1.100 -3.300 2.900 -7.800 3.900 -10.000 1.700 -3.600 5.000 -11.700 10.200 -24.800 3.400 -8.400 6.000 -15.100 8.100 -20.200 1.100 -2.800 2.900 -7.300 4.000 -10.000 1.100 -2.800 2.800 -7.100 3.900 -9.800 1.000 -2.600 2.800 -7.100 4.000 -10.000 1.100 -2.800 3.000 -7.500 4.100 -10.200 1.100 -2.800 2.800 -7.000 3.800 -9.500 5.600 -14.200 8.400 -20.900 10.100 -24.500 1.000 -2.200 2.800 -6.700 3.900 -10.000 1.200 -3.300 3.000 -7.800 4.000 -10.000 1.100 -2.200 2.900 -6.700 4.000 -10.000 1.200 -3.300 3.000 -7.800 4.000 -10.000 1.100 -2.200 2.900 -6.700 4.000 -10.000 1.200 -3.300 3.000 -7.800 4.000 -10.000 1.100 -2.200 2.900 -6.700 4.000 -10.000 1.200 -3.300 3.000 -7.800 4.000 -10.000 1.100 -2.200 2.900 -6.700 4.000 -10.000 1.200 -3.300 3.000 -7.800 4.000 -10.000 1.100 -2.200 2.900 -6.700 4.000 -10.000 1.200 -3.300 3.000 -7.800 4.000 -10.000 1.000 -2.200 2.800 -6.700 4.000 -10.000 1.200 -3.300 3.100 -8.300 4.200 -11.000 1.100 -2.800 2.800 -7.000 3.800 -9.500 1.000 -2.500 2.700 -6.900 3.900 -9.800 1.100 -2.800 3.000 -7.500 4.100 -10.200 1.100 -2.800 2.900 -7.100 3.900 -9.800 1.100 -2.600 2.900 -7.400 4.100 -10.700 1.200 -3.300 3.000 -7.800 4.000 -10.000 1.000 -2.200 2.800 -6.700 4.000 -10.000 1.100 -3.300 2.900 -7.800 4.000 -10.000 1.000 -2.200 2.800 -6.700 4.000 -10.000 2.000 -5.700 2.900 -7.800 7.900 -20.300 1.100 -2.800 2.900 -7.300 4.000 -10.000 1.000 -2.600 2.800 -7.000 3.900 -9.700 1.100 -2.800 3.000 -7.700 4.200 -11.000 1.200 -3.300 3.000 -7.800 4.000 -10.000 1.100 -2.200 2.900 -6.700 4.000 -10.000 1.200 -3.300 3.000 -7.800 4.000 -10.000 1.100 -2.200 2.900 -6.700 4.100 -10.000 2.200 -6.100 4.100 -11.000 7.700 -20.000 1.100 -2.800 2.900 -7.300 4.000 -10.000 1.100 -2.800 2.900 -7.300 4.000 -10.000 1.100 -2.800 2.900 -7.300 4.000 -10.000 1.100 -2.800 3.000 -7.700 4.200 -11.000 3.600 -9.900 3.900 -10.500 5.400 -10.500 0.700 -0.000 1.800 0.600 2.400 1.300 z" fill="url(#avanteA)" fill-rule="evenodd"/>
  <path d="M 1185.40 477.30 c -1.900 1.100 -1.800 2.800 0.500 7.900 1.800 4.200 4.300 10.200 8.300 20.300 1.100 2.700 2.800 6.800 3.800 9.000 1.000 2.200 2.800 6.700 4.000 10.000 1.100 3.300 2.900 7.800 3.900 10.000 1.700 3.700 5.400 12.700 10.300 25.000 1.100 2.700 2.800 7.100 3.900 9.700 1.000 2.700 2.800 6.900 3.800 9.500 1.100 2.700 2.800 7.000 3.900 9.800 4.900 12.300 8.600 21.300 10.300 25.000 1.000 2.200 2.800 6.700 3.900 10.000 1.200 3.300 3.000 7.800 4.100 10.000 1.000 2.200 3.200 7.600 5.000 12.000 5.500 14.100 9.000 22.900 13.100 33.000 1.100 2.700 2.800 7.200 3.900 9.900 1.000 2.700 2.300 5.400 2.900 6.000 0.500 0.500 1.000 1.800 1.000 2.900 0.000 1.000 0.900 3.500 1.900 5.500 1.100 2.000 2.900 6.400 4.100 9.700 1.200 3.300 2.900 7.800 3.900 10.000 2.000 4.200 5.200 12.000 14.000 34.200 1.200 2.900 3.000 7.400 4.000 10.000 1.100 2.700 2.800 7.000 3.900 9.800 4.900 12.300 8.600 21.300 10.300 25.000 1.000 2.200 2.800 6.700 3.900 10.000 1.200 3.300 3.000 7.800 4.000 10.000 1.000 2.200 2.700 6.400 3.900 9.200 1.200 2.900 3.000 7.500 4.100 10.300 1.100 2.700 2.900 7.200 4.000 10.000 4.000 9.900 6.200 15.600 7.500 18.500 0.700 1.700 2.500 6.200 3.900 10.000 1.500 3.900 3.500 8.800 4.500 11.000 1.100 2.200 2.900 6.700 4.000 10.000 1.200 3.300 3.100 7.700 4.100 9.700 1.100 2.000 2.000 4.300 2.000 4.900 0.000 0.700 0.800 3.100 1.800 5.300 1.900 4.200 4.700 10.900 8.200 19.600 1.100 2.700 3.000 7.400 4.100 10.200 1.200 2.900 3.000 7.500 4.100 10.300 1.100 2.700 2.800 6.800 3.800 9.000 1.100 2.200 2.900 6.700 4.000 10.000 1.200 3.300 3.000 7.800 4.000 10.000 1.100 2.200 2.900 6.700 4.000 10.000 1.200 3.300 3.000 7.800 4.000 10.000 1.700 3.800 3.600 8.300 8.200 20.000 1.100 2.700 2.900 7.200 4.000 10.000 1.100 2.700 2.900 7.200 4.000 10.000 1.100 2.700 2.800 6.800 3.700 9.000 1.000 2.200 2.800 6.700 4.000 10.000 1.200 3.300 3.000 7.800 4.100 10.000 1.000 2.200 2.800 6.700 3.900 10.000 1.200 3.300 3.100 7.700 4.100 9.700 1.100 2.000 2.000 4.200 2.000 4.900 0.000 0.600 0.800 3.000 1.900 5.300 1.000 2.300 2.800 6.300 3.900 9.100 1.100 2.700 2.900 7.400 4.100 10.200 1.100 2.900 3.100 7.700 4.200 10.500 1.200 2.900 3.000 7.500 4.100 10.300 1.100 2.700 2.800 6.800 3.800 9.000 1.100 2.200 2.900 6.700 4.000 10.000 1.200 3.300 3.000 7.800 4.000 10.000 1.100 2.200 2.900 6.700 4.100 10.000 1.200 3.300 3.000 7.800 4.000 10.000 1.600 3.700 2.900 6.900 8.100 20.000 1.100 2.700 2.900 7.200 4.000 10.000 1.100 2.700 2.900 7.200 4.000 10.000 1.100 2.700 2.800 6.800 3.800 9.000 1.000 2.200 2.800 6.700 4.000 10.000 1.100 3.300 2.900 7.800 4.000 10.000 1.000 2.200 2.800 6.700 4.000 10.000 1.100 3.300 2.900 7.800 4.000 10.000 1.000 2.200 2.700 6.200 3.800 9.000 1.100 2.700 2.900 7.400 4.100 10.200 1.100 2.900 3.100 7.700 4.200 10.500 1.200 2.900 3.000 7.500 4.100 10.300 1.100 2.700 2.900 6.800 3.900 9.100 1.100 2.300 1.900 4.700 1.900 5.300 0.000 0.700 0.900 2.900 2.000 4.900 1.000 2.000 2.900 6.400 4.100 9.700 1.100 3.300 2.900 7.800 4.000 10.000 1.000 2.200 3.200 7.600 5.000 12.000 5.000 12.600 6.800 17.200 8.800 22.200 3.400 8.400 6.200 15.700 8.200 20.700 1.000 2.700 2.300 5.400 2.900 6.000 0.500 0.500 1.000 1.800 1.000 2.900 0.000 1.000 0.900 3.500 1.900 5.500 1.100 2.000 2.900 6.400 4.100 9.700 1.200 3.300 2.900 7.800 3.900 10.000 1.700 3.600 5.000 11.700 10.200 24.700 1.000 2.700 2.800 7.000 3.900 9.800 1.100 2.700 2.900 7.200 4.000 10.000 1.100 2.700 2.900 7.100 3.900 9.700 5.200 13.100 8.500 21.200 10.200 24.800 1.000 2.200 2.800 6.700 4.000 10.000 1.300 3.300 2.700 6.600 3.200 7.200 0.800 1.000 21.200 1.300 96.300 1.300 85.300 -0.000 95.400 -0.200 96.800 -1.600 0.900 -0.800 1.600 -2.200 1.600 -3.000 0.000 -0.800 0.900 -3.200 2.000 -5.200 1.000 -2.000 2.900 -6.400 4.100 -9.700 1.100 -3.300 2.900 -7.800 4.000 -10.000 1.000 -2.200 3.200 -7.600 5.000 -12.000 1.700 -4.400 3.900 -10.000 4.900 -12.500 1.000 -2.500 2.800 -7.000 4.000 -10.000 1.200 -3.000 3.000 -7.500 4.000 -10.000 1.000 -2.500 3.200 -8.100 4.900 -12.500 1.800 -4.400 4.000 -9.800 5.000 -12.000 1.100 -2.200 2.900 -6.700 4.100 -10.000 1.100 -3.300 2.900 -7.800 4.000 -10.000 1.700 -3.800 4.000 -9.300 8.100 -19.800 6.300 -15.700 9.600 -23.800 12.100 -29.300 1.000 -2.200 1.800 -4.600 1.800 -5.300 0.000 -0.600 0.900 -2.900 2.000 -4.900 1.000 -2.000 2.900 -6.400 4.100 -9.700 1.100 -3.300 2.900 -7.800 3.900 -10.000 1.800 -4.000 4.700 -11.100 8.000 -19.500 1.000 -2.500 2.800 -7.000 4.000 -10.000 1.200 -3.000 3.100 -7.800 4.200 -10.500 1.100 -2.800 2.800 -6.800 3.800 -9.000 1.000 -2.200 2.800 -6.700 3.900 -10.000 1.200 -3.300 3.100 -7.700 4.100 -9.700 1.100 -2.000 2.000 -4.200 2.000 -4.900 0.000 -0.600 1.800 -5.500 4.100 -10.800 2.200 -5.300 4.900 -11.600 5.900 -14.100 4.000 -10.200 6.300 -15.700 8.100 -19.600 1.100 -2.300 1.900 -4.700 1.900 -5.300 0.000 -0.700 0.900 -2.900 2.000 -4.900 1.000 -2.000 2.900 -6.400 4.100 -9.700 1.100 -3.300 2.900 -7.800 4.000 -10.000 1.000 -2.200 3.200 -7.600 5.000 -12.000 4.800 -12.300 6.700 -17.100 9.000 -22.800 1.200 -2.800 2.800 -7.000 3.600 -9.200 0.800 -2.100 2.000 -5.100 2.700 -6.500 0.800 -1.400 2.300 -5.200 3.500 -8.500 1.200 -3.300 3.000 -7.800 4.100 -10.000 1.000 -2.200 2.800 -6.700 4.000 -10.000 1.100 -3.300 2.900 -7.800 4.000 -10.000 1.700 -3.700 3.300 -7.700 7.900 -19.300 3.300 -8.200 5.800 -14.400 10.000 -24.300 2.300 -5.300 4.100 -10.200 4.100 -10.800 0.000 -0.700 0.900 -2.900 2.000 -4.900 1.000 -2.000 2.900 -6.400 4.100 -9.700 1.200 -3.300 3.000 -7.800 4.000 -10.000 0.900 -2.200 2.700 -6.400 3.800 -9.300 1.200 -2.800 3.000 -7.500 4.100 -10.200 1.100 -2.800 2.900 -7.300 4.000 -10.000 1.100 -2.800 2.900 -7.400 4.100 -10.300 1.200 -2.800 2.900 -7.000 3.900 -9.200 1.000 -2.200 2.800 -6.700 3.900 -10.000 1.200 -3.300 3.100 -7.700 4.100 -9.700 1.100 -2.000 2.000 -4.200 2.000 -4.900 0.000 -0.600 0.800 -3.000 1.900 -5.300 1.700 -3.900 3.300 -7.700 8.100 -19.600 4.800 -11.900 6.400 -15.700 8.100 -19.600 1.100 -2.300 1.900 -4.700 1.900 -5.300 0.000 -0.700 0.900 -2.900 2.000 -4.900 1.000 -2.000 2.900 -6.400 4.000 -9.700 1.200 -3.300 3.000 -7.700 4.100 -9.700 1.000 -2.000 1.900 -4.300 1.900 -5.000 0.000 -0.700 0.900 -3.100 1.900 -5.300 1.100 -2.200 2.900 -6.400 4.000 -9.300 1.200 -2.800 3.000 -7.500 4.100 -10.200 1.100 -2.800 2.900 -7.400 4.100 -10.300 1.100 -2.800 2.900 -7.000 3.800 -9.200 1.000 -2.200 2.800 -6.700 4.000 -10.000 1.200 -3.300 3.000 -7.800 4.100 -10.000 1.000 -2.200 2.800 -6.700 4.000 -10.000 1.200 -3.300 3.000 -7.900 4.100 -10.300 1.000 -2.300 1.900 -5.000 1.900 -6.000 0.000 -1.000 0.600 -2.600 1.400 -3.700 0.700 -1.100 1.800 -3.600 2.400 -5.500 0.600 -1.900 2.400 -7.300 4.200 -12.000 1.700 -4.700 3.500 -9.900 4.000 -11.500 1.700 -5.700 5.000 -15.000 6.000 -16.700 0.500 -1.000 1.400 -3.900 2.000 -6.500 0.600 -2.600 1.600 -6.400 2.400 -8.300 1.500 -4.000 4.300 -13.000 11.600 -37.500 1.100 -3.900 2.000 -7.500 2.000 -8.100 0.000 -0.600 0.800 -4.000 1.900 -7.500 3.800 -13.300 10.900 -47.300 13.100 -62.900 0.500 -3.600 1.600 -11.500 2.500 -17.500 5.000 -35.400 4.000 -86.300 -2.300 -116.500 l -0.700 -3.500 -96.500 -0.000 -96.500 -0.000 0.200 4.000 c 0.000 2.200 0.600 6.500 1.100 9.500 4.400 23.200 5.200 57.900 2.300 89.100 -1.200 12.400 -2.500 24.000 -3.000 25.600 -0.500 1.600 -1.200 5.900 -1.500 9.400 -0.400 3.500 -1.500 10.200 -2.600 14.900 -1.000 4.700 -2.900 13.000 -4.100 18.500 -1.200 5.500 -3.000 12.900 -4.000 16.400 -1.100 3.500 -1.900 7.000 -1.900 7.800 0.000 0.700 -0.900 3.900 -2.000 7.000 -1.100 3.200 -2.000 6.600 -2.000 7.600 0.000 1.100 -0.600 3.300 -1.400 5.000 -0.800 1.800 -2.100 5.700 -3.000 8.700 -3.500 12.900 -6.700 23.000 -9.700 29.800 -1.100 2.300 -1.900 5.000 -1.900 6.000 -0.100 0.900 -0.900 3.500 -2.000 5.700 -1.100 2.200 -1.900 4.600 -2.000 5.400 0.000 0.800 -0.800 3.200 -1.900 5.500 -1.700 3.800 -2.400 5.600 -5.200 13.800 -0.600 1.800 -1.900 5.100 -2.900 7.300 -1.000 2.200 -2.800 6.700 -4.000 10.000 -2.100 5.900 -3.700 9.900 -7.800 20.000 -1.100 2.700 -3.000 7.700 -4.200 11.000 -1.200 3.300 -3.000 7.800 -4.000 10.000 -1.000 2.200 -2.800 6.700 -4.000 10.000 -2.500 6.800 -5.400 14.100 -8.100 20.300 -1.000 2.300 -1.900 4.800 -1.900 5.400 0.000 0.600 -0.800 2.900 -1.900 5.200 -1.000 2.300 -2.800 6.800 -4.000 10.100 -1.200 3.300 -2.900 7.300 -3.600 9.000 -0.800 1.600 -2.100 4.800 -2.900 7.000 -0.700 2.200 -2.300 6.200 -3.400 9.000 -1.100 2.700 -2.600 6.600 -3.200 8.500 -0.700 1.900 -2.100 5.300 -3.100 7.500 -1.000 2.200 -2.800 6.700 -3.900 10.000 -1.200 3.300 -2.800 7.300 -3.600 9.000 -0.700 1.600 -2.000 4.800 -2.800 7.000 -0.700 2.200 -2.400 6.500 -3.600 9.500 -3.000 7.600 -6.900 18.000 -8.000 21.200 -0.500 1.500 -1.600 3.800 -2.400 5.000 -0.900 1.200 -1.600 3.000 -1.600 4.000 0.000 1.000 -0.900 3.700 -1.900 6.000 -1.000 2.400 -2.800 6.700 -4.000 9.500 -1.200 2.900 -3.000 7.400 -4.000 10.000 -1.100 2.700 -2.900 7.500 -4.100 10.800 -1.200 3.300 -3.000 7.700 -4.100 9.700 -1.000 2.000 -1.900 4.400 -1.900 5.200 0.000 0.900 -0.900 3.500 -1.900 5.800 -2.700 6.200 -5.600 13.500 -8.100 20.300 -1.200 3.300 -3.000 7.800 -4.000 10.000 -1.000 2.200 -2.800 6.700 -4.000 10.000 -1.200 3.300 -3.000 8.100 -4.100 10.700 -1.000 2.700 -2.800 6.900 -3.800 9.500 -1.100 2.700 -2.900 7.500 -4.100 10.800 -1.200 3.300 -3.000 7.800 -4.000 10.000 -1.000 2.200 -2.800 6.700 -4.000 10.000 -2.500 6.800 -5.400 14.100 -8.100 20.300 -1.000 2.300 -1.900 4.800 -1.900 5.400 0.000 0.600 -0.800 2.900 -1.900 5.200 -1.000 2.300 -2.800 6.800 -4.000 10.100 -1.200 3.300 -2.900 7.300 -3.600 9.000 -0.800 1.600 -2.100 4.800 -2.900 7.000 -0.700 2.200 -2.300 6.200 -3.400 9.000 -1.100 2.700 -2.600 6.600 -3.200 8.500 -0.700 1.900 -2.100 5.300 -3.100 7.500 -1.000 2.200 -2.800 6.700 -4.000 10.000 -1.200 3.300 -3.000 7.800 -4.000 10.100 -1.100 2.300 -1.900 4.600 -1.900 5.200 0.000 0.600 -0.900 3.100 -1.900 5.400 -2.400 5.500 -5.300 12.700 -8.000 20.300 -1.200 3.300 -3.000 7.800 -4.000 10.000 -1.000 2.200 -2.400 5.600 -3.100 7.500 -0.600 1.900 -2.100 5.700 -3.200 8.500 -1.100 2.700 -2.700 6.800 -3.500 9.000 -2.800 7.700 -6.300 8.200 -7.900 1.200 -0.300 -1.800 -1.200 -4.300 -2.000 -5.700 -0.800 -1.400 -2.000 -4.300 -2.800 -6.500 -3.900 -10.800 -4.800 -13.200 -6.000 -16.000 -0.800 -1.700 -2.400 -5.700 -3.600 -9.000 -1.200 -3.300 -3.000 -7.900 -4.100 -10.300 -1.000 -2.300 -1.900 -4.800 -1.900 -5.400 0.000 -0.600 -0.900 -2.900 -1.900 -5.200 -1.100 -2.300 -2.900 -6.800 -4.100 -10.100 -2.900 -7.700 -5.700 -14.900 -8.100 -20.300 -1.000 -2.300 -1.900 -5.000 -1.900 -6.000 0.000 -1.000 -0.700 -2.700 -1.500 -4.000 -0.900 -1.200 -2.200 -4.100 -3.000 -6.400 -0.700 -2.400 -2.300 -6.800 -3.500 -9.800 -1.200 -3.000 -2.900 -7.300 -3.600 -9.500 -0.800 -2.200 -2.100 -5.400 -2.900 -7.000 -0.700 -1.700 -2.300 -5.700 -3.500 -9.000 -1.200 -3.300 -3.000 -8.000 -4.000 -10.500 -1.000 -2.500 -2.800 -7.200 -4.000 -10.500 -1.200 -3.300 -3.000 -7.800 -4.000 -10.000 -1.000 -2.200 -2.300 -5.600 -3.000 -7.500 -0.600 -1.900 -2.000 -5.500 -3.000 -8.000 -1.000 -2.500 -2.400 -6.100 -3.000 -8.000 -0.700 -1.900 -2.100 -5.200 -3.100 -7.200 -1.000 -2.000 -1.900 -4.400 -1.900 -5.200 0.000 -0.900 -0.900 -3.500 -1.900 -5.800 -2.400 -5.400 -5.200 -12.600 -8.100 -20.300 -1.200 -3.300 -3.000 -7.800 -4.100 -10.100 -1.000 -2.300 -1.900 -4.600 -1.900 -5.200 0.000 -0.600 -0.900 -3.100 -1.900 -5.400 -1.100 -2.400 -2.900 -7.000 -4.100 -10.300 -1.200 -3.300 -2.800 -7.400 -3.600 -9.000 -0.700 -1.700 -2.000 -4.900 -2.900 -7.300 -0.800 -2.300 -2.200 -6.100 -3.000 -8.500 -0.900 -2.300 -2.200 -5.600 -2.900 -7.200 -0.800 -1.700 -2.400 -5.700 -3.600 -9.000 -1.200 -3.300 -3.000 -8.100 -4.100 -10.800 -1.000 -2.600 -2.800 -6.800 -3.800 -9.500 -1.100 -2.600 -2.900 -7.400 -4.100 -10.700 -2.900 -7.700 -5.700 -14.900 -8.100 -20.300 -1.000 -2.300 -1.900 -5.000 -1.900 -6.000 0.000 -1.000 -0.700 -2.700 -1.500 -4.000 -0.900 -1.200 -2.200 -4.100 -3.000 -6.400 -0.700 -2.400 -2.300 -6.800 -3.500 -9.800 -1.200 -3.000 -2.900 -7.300 -3.600 -9.500 -0.800 -2.200 -2.100 -5.400 -2.900 -7.000 -0.700 -1.700 -2.300 -5.700 -3.500 -9.000 -1.200 -3.300 -3.000 -8.000 -4.000 -10.500 -1.000 -2.500 -2.800 -7.200 -4.000 -10.500 -1.200 -3.300 -3.000 -7.800 -4.000 -10.000 -1.000 -2.200 -2.300 -5.600 -3.000 -7.500 -0.600 -1.900 -2.000 -5.500 -3.000 -8.000 -1.000 -2.500 -2.400 -6.100 -3.000 -8.000 -0.700 -1.900 -2.100 -5.200 -3.100 -7.200 -1.000 -2.000 -1.900 -4.400 -1.900 -5.200 0.000 -0.900 -0.900 -3.500 -1.900 -5.800 -2.400 -5.400 -5.200 -12.600 -8.100 -20.300 -1.200 -3.300 -3.000 -7.800 -4.100 -10.100 -1.000 -2.300 -1.900 -4.600 -1.900 -5.200 0.000 -0.600 -0.900 -3.100 -1.900 -5.400 -1.100 -2.400 -2.900 -7.000 -4.100 -10.300 -1.200 -3.300 -2.800 -7.400 -3.600 -9.000 -0.700 -1.700 -2.100 -5.000 -3.000 -7.500 -3.900 -11.000 -4.500 -12.700 -5.800 -15.500 -0.800 -1.700 -2.400 -5.700 -3.600 -9.000 -2.100 -5.900 -3.700 -9.900 -7.800 -20.000 -1.100 -2.800 -3.000 -7.700 -4.200 -11.000 -2.900 -7.700 -5.700 -14.900 -8.100 -20.300 -1.000 -2.300 -1.900 -5.000 -1.900 -6.000 0.000 -1.000 -0.700 -2.700 -1.500 -4.000 -0.900 -1.200 -2.200 -4.100 -3.000 -6.400 -0.700 -2.400 -2.300 -6.800 -3.500 -9.800 -1.200 -3.000 -2.900 -7.300 -3.600 -9.500 -0.800 -2.200 -2.100 -5.400 -2.900 -7.000 -0.700 -1.700 -2.300 -5.700 -3.500 -9.000 -1.200 -3.300 -3.000 -8.000 -4.000 -10.500 -1.000 -2.500 -2.800 -7.200 -4.000 -10.500 -1.200 -3.300 -3.000 -7.800 -4.000 -10.000 -1.000 -2.200 -2.300 -5.600 -3.000 -7.500 -0.600 -1.900 -2.000 -5.500 -3.000 -8.000 -1.000 -2.500 -2.400 -6.100 -3.000 -8.000 -0.700 -1.900 -2.100 -5.200 -3.100 -7.200 -1.000 -2.000 -1.900 -4.400 -1.900 -5.200 0.000 -0.900 -0.900 -3.500 -1.900 -5.800 -2.400 -5.400 -5.200 -12.600 -8.100 -20.300 -1.200 -3.300 -3.000 -7.800 -4.100 -10.100 -1.000 -2.300 -1.900 -4.600 -1.900 -5.200 0.000 -0.600 -0.900 -3.100 -1.900 -5.400 -1.100 -2.400 -3.000 -7.000 -4.200 -10.300 -1.200 -3.300 -3.000 -7.800 -4.000 -10.100 -1.100 -2.300 -1.900 -4.700 -1.900 -5.500 0.000 -0.800 -0.900 -2.800 -2.000 -4.400 l -2.000 -3.000 -102.600 -0.500 c -56.400 -0.300 -103.200 -0.100 -104.000 0.300 z M 2553.30 478.20 c -1.100 1.600 -4.500 9.500 -7.300 17.300 -1.200 3.300 -3.000 7.800 -4.000 10.000 -1.100 2.200 -2.900 6.700 -4.100 10.000 -1.200 3.300 -3.000 8.200 -4.100 11.000 -1.100 2.700 -2.800 7.000 -3.800 9.500 -1.000 2.500 -2.700 6.700 -3.800 9.500 -1.100 2.700 -3.000 7.700 -4.200 11.000 -1.200 3.300 -3.000 7.800 -4.000 10.000 -1.000 2.200 -2.800 6.700 -3.900 10.000 -1.200 3.300 -3.100 7.700 -4.100 9.700 -1.100 2.000 -2.000 4.400 -2.000 5.200 0.000 0.900 -0.900 3.500 -1.900 5.800 -1.000 2.400 -2.800 6.700 -4.000 9.500 -1.200 2.900 -3.000 7.400 -4.000 10.000 -1.100 2.700 -2.900 7.500 -4.100 10.800 -1.200 3.300 -3.000 7.800 -4.000 10.000 -1.100 2.200 -2.900 6.700 -4.000 10.000 -1.200 3.300 -2.800 7.300 -3.600 9.000 -0.700 1.600 -2.000 4.800 -2.800 7.000 -1.300 3.700 -3.200 8.600 -7.600 19.500 -1.000 2.500 -2.400 6.100 -3.000 8.000 -0.700 1.900 -2.000 5.300 -3.000 7.500 -1.000 2.200 -2.800 6.700 -4.000 10.000 -1.100 3.300 -2.900 7.800 -4.000 10.000 -1.000 2.200 -2.800 6.700 -4.000 10.000 -1.200 3.300 -3.000 8.100 -4.100 10.700 -1.000 2.700 -2.800 7.200 -4.000 10.000 -1.200 2.900 -3.000 7.200 -4.000 9.600 -1.000 2.300 -1.900 4.900 -1.900 5.800 0.000 0.800 -0.900 3.200 -2.000 5.200 -1.000 2.000 -2.900 6.400 -4.000 9.700 -1.200 3.300 -3.000 7.700 -4.100 9.700 -1.000 2.000 -1.900 4.400 -1.900 5.200 0.000 0.900 -0.900 3.500 -1.900 5.800 -1.000 2.400 -2.800 6.500 -3.900 9.300 -1.100 2.700 -2.900 7.200 -4.000 10.000 -1.100 2.700 -2.900 7.200 -4.000 10.000 -1.100 2.700 -2.900 7.700 -4.100 11.000 -1.200 3.300 -3.000 7.800 -4.100 10.000 -1.000 2.200 -2.800 6.700 -4.000 10.000 -1.200 3.300 -3.000 8.100 -4.100 10.700 -1.000 2.700 -2.800 7.200 -4.000 10.000 -1.200 2.900 -3.000 7.200 -4.000 9.600 -1.000 2.300 -1.900 4.800 -1.900 5.400 0.000 0.600 -0.900 2.900 -1.900 5.200 -1.100 2.300 -2.900 6.800 -4.100 10.100 -1.200 3.300 -3.000 7.800 -4.000 10.000 -1.100 2.200 -2.900 6.700 -4.100 10.000 -2.100 6.000 -4.000 10.800 -8.000 20.700 -4.700 11.500 -5.800 14.500 -7.900 20.300 -1.200 3.300 -3.000 7.800 -4.000 10.000 -1.000 2.200 -2.800 6.700 -4.000 10.000 -1.200 3.300 -3.000 7.800 -4.100 10.100 -1.000 2.300 -1.900 4.600 -1.900 5.200 0.000 0.600 -0.900 3.100 -1.900 5.400 -1.000 2.400 -2.800 6.500 -3.900 9.300 -1.100 2.700 -2.900 7.200 -4.000 10.000 -1.100 2.700 -3.000 7.700 -4.200 11.000 -1.200 3.300 -3.000 7.800 -4.000 10.000 -1.100 2.200 -2.900 6.700 -4.000 10.000 -1.200 3.300 -2.800 7.300 -3.600 9.000 -0.700 1.600 -2.000 4.800 -2.800 7.000 -0.700 2.200 -2.300 6.200 -3.400 9.000 -4.800 11.800 -6.100 15.200 -7.200 18.500 -0.700 1.900 -2.000 5.300 -3.000 7.500 -1.000 2.200 -2.800 6.700 -4.000 10.000 -1.100 3.300 -2.900 7.800 -4.000 10.000 -1.000 2.200 -2.800 6.700 -4.000 10.000 -1.200 3.300 -3.000 8.100 -4.100 10.700 -1.000 2.700 -2.800 7.200 -4.000 10.000 -1.200 2.900 -3.000 7.200 -4.000 9.600 -1.000 2.300 -1.900 4.900 -1.900 5.800 0.000 0.800 -0.900 3.200 -2.000 5.200 -1.000 2.000 -2.900 6.400 -4.100 9.700 -1.100 3.300 -2.900 7.800 -3.900 10.000 -1.000 2.200 -2.300 5.600 -3.000 7.500 -0.600 1.900 -2.000 5.600 -3.100 8.200 -1.000 2.700 -2.800 7.200 -4.000 10.000 -1.200 2.900 -2.800 7.100 -3.500 9.300 -0.800 2.200 -2.100 5.300 -2.800 7.000 -0.800 1.600 -2.400 5.700 -3.600 9.000 -1.100 3.300 -2.900 7.800 -4.000 10.000 -1.000 2.200 -2.800 6.700 -4.000 10.000 -1.200 3.300 -3.000 8.100 -4.100 10.700 -1.000 2.700 -2.800 7.200 -4.000 10.000 -1.200 2.900 -3.000 7.200 -4.000 9.600 -1.000 2.300 -1.900 4.800 -1.900 5.400 0.000 0.600 -0.900 2.900 -1.900 5.200 -1.100 2.300 -2.900 6.800 -4.100 10.100 -1.200 3.300 -3.000 7.800 -4.000 10.000 -1.000 2.200 -2.800 6.700 -4.000 10.000 -1.200 3.300 -3.100 8.200 -4.200 11.000 -1.100 2.700 -2.900 7.100 -3.900 9.700 -1.100 2.700 -2.800 6.900 -3.800 9.500 -1.100 2.700 -2.900 7.500 -4.100 10.800 -1.200 3.300 -3.000 7.800 -4.000 10.000 -1.000 2.200 -2.800 6.700 -4.000 10.000 -1.200 3.300 -3.000 7.800 -4.100 10.100 -1.000 2.300 -1.900 4.600 -1.900 5.200 0.000 0.600 -0.900 3.100 -1.900 5.400 -1.700 4.000 -3.400 8.000 -8.100 19.800 -1.000 2.500 -2.800 7.200 -4.000 10.500 -1.200 3.300 -3.000 7.800 -4.000 10.000 -1.100 2.200 -2.900 6.700 -4.000 10.000 -1.200 3.300 -2.800 7.300 -3.600 9.000 -0.700 1.600 -2.000 4.800 -2.800 7.000 -0.700 2.200 -2.300 6.200 -3.400 9.000 -4.800 11.800 -6.100 15.200 -7.200 18.500 -0.700 1.900 -2.000 5.300 -3.000 7.500 -5.500 12.400 -7.800 19.300 -6.700 20.400 1.300 1.300 196.400 1.600 198.400 0.300 1.100 -0.700 1.700 -2.200 6.300 -14.700 1.000 -2.800 2.700 -7.300 3.800 -10.000 1.100 -2.800 2.600 -6.600 3.200 -8.500 0.700 -1.900 2.000 -5.300 3.000 -7.500 1.000 -2.200 2.300 -5.500 2.900 -7.300 0.600 -1.700 1.600 -4.700 2.200 -6.500 0.600 -1.700 1.900 -5.000 2.900 -7.200 1.000 -2.200 2.300 -5.600 3.000 -7.500 0.600 -1.900 2.100 -5.800 3.200 -8.500 1.100 -2.800 2.800 -7.500 4.000 -10.500 4.100 -11.200 5.700 -15.600 7.600 -20.500 1.100 -2.800 2.600 -6.600 3.200 -8.500 0.700 -1.900 2.000 -5.300 3.000 -7.500 1.600 -3.700 2.400 -5.800 5.200 -14.000 0.600 -1.700 1.800 -4.800 2.800 -7.000 1.000 -2.200 2.300 -5.600 3.000 -7.500 0.600 -1.900 2.100 -5.800 3.200 -8.500 1.100 -2.800 2.800 -7.400 3.900 -10.300 1.000 -2.800 2.800 -7.600 3.800 -10.500 1.100 -2.800 2.800 -7.500 3.900 -10.200 1.100 -2.800 2.600 -6.600 3.200 -8.500 0.700 -1.900 2.000 -5.300 3.000 -7.500 1.000 -2.200 2.300 -5.600 3.000 -7.500 2.100 -6.000 3.500 -9.500 4.300 -10.800 0.700 -0.900 50.400 -1.200 243.000 -1.200 267.600 -0.000 245.500 -0.600 247.600 6.300 1.400 4.900 5.000 14.800 6.500 18.200 0.800 1.600 2.300 5.600 3.500 8.700 1.200 3.200 3.000 8.400 4.200 11.500 1.200 3.200 2.700 7.100 3.500 8.800 1.400 3.100 3.500 8.900 5.900 16.000 0.700 2.200 2.000 5.300 2.900 7.000 0.900 1.600 1.600 3.600 1.600 4.400 0.000 0.800 0.900 3.200 1.900 5.500 2.700 5.800 6.100 14.700 6.100 15.900 0.000 0.500 0.800 2.800 1.900 5.100 1.000 2.300 2.800 6.600 3.900 9.600 5.600 15.200 6.500 17.700 7.800 20.500 1.400 3.100 3.500 8.900 5.900 16.000 0.700 2.200 2.000 5.300 2.900 7.000 0.900 1.600 1.600 3.600 1.600 4.400 0.000 0.800 0.900 3.200 1.900 5.500 2.700 5.800 6.100 14.700 6.100 15.900 0.000 0.500 0.800 2.800 1.900 5.100 1.000 2.300 2.800 6.600 3.900 9.600 5.100 14.000 6.600 17.900 8.900 22.700 l 2.400 5.300 100.700 -0.000 c 73.400 -0.000 101.100 -0.300 101.900 -1.100 1.200 -1.200 0.700 -3.300 -2.200 -9.400 -0.700 -1.700 -2.300 -5.700 -3.500 -9.000 -1.200 -3.300 -3.100 -8.300 -4.200 -11.000 -1.900 -4.700 -3.100 -7.800 -7.700 -19.300 -1.000 -2.600 -2.800 -7.400 -4.000 -10.700 -1.200 -3.300 -3.000 -7.800 -4.100 -10.000 -1.000 -2.200 -2.800 -6.700 -4.000 -10.000 -1.200 -3.300 -3.000 -7.800 -4.100 -10.100 -1.000 -2.300 -1.900 -4.600 -1.900 -5.200 0.000 -0.600 -0.900 -3.100 -1.900 -5.400 -1.000 -2.400 -2.800 -6.600 -3.900 -9.300 -1.100 -2.800 -2.900 -7.300 -4.000 -10.000 -1.100 -2.800 -3.000 -7.700 -4.200 -11.000 -1.200 -3.300 -3.000 -7.800 -4.000 -10.000 -1.100 -2.200 -2.900 -6.700 -4.100 -10.000 -2.100 -5.800 -3.600 -9.600 -7.900 -20.500 -5.300 -13.200 -6.300 -15.800 -8.100 -19.800 -1.000 -2.300 -1.900 -4.900 -1.900 -5.800 0.000 -0.800 -0.900 -3.200 -1.900 -5.200 -1.100 -2.000 -2.900 -6.400 -4.100 -9.700 -1.100 -3.300 -3.000 -7.700 -4.000 -9.700 -1.100 -2.000 -2.000 -4.400 -2.000 -5.200 0.000 -0.900 -0.900 -3.500 -1.900 -5.800 -1.000 -2.400 -2.800 -6.700 -4.000 -9.600 -1.200 -2.800 -3.000 -7.300 -4.000 -10.000 -1.100 -2.600 -2.900 -7.400 -4.100 -10.700 -1.200 -3.300 -3.000 -7.800 -4.000 -10.000 -1.100 -2.200 -2.900 -6.700 -4.000 -10.000 -1.200 -3.300 -3.000 -7.800 -4.000 -10.000 -1.000 -2.200 -2.300 -5.600 -3.000 -7.500 -0.600 -1.900 -2.000 -5.600 -3.100 -8.300 -1.000 -2.600 -2.800 -7.100 -4.000 -10.000 -1.200 -2.800 -2.800 -7.000 -3.500 -9.200 -0.800 -2.200 -2.100 -5.400 -2.800 -7.000 -0.800 -1.700 -2.400 -5.700 -3.600 -9.000 -1.100 -3.300 -2.900 -7.800 -4.000 -10.000 -1.000 -2.200 -2.800 -6.700 -4.000 -10.000 -1.200 -3.300 -3.000 -8.100 -4.100 -10.800 -1.000 -2.600 -2.800 -7.100 -4.000 -10.000 -1.200 -2.800 -3.000 -7.100 -4.000 -9.500 -1.000 -2.300 -1.900 -4.900 -1.900 -5.800 0.000 -0.800 -0.900 -3.200 -2.000 -5.200 -1.000 -2.000 -2.900 -6.400 -4.100 -9.700 -1.100 -3.300 -2.900 -7.800 -3.900 -10.000 -1.000 -2.200 -2.800 -6.700 -4.000 -10.000 -1.200 -3.300 -3.000 -8.100 -4.100 -10.800 -1.000 -2.600 -2.900 -7.100 -4.000 -10.000 -3.500 -8.500 -5.500 -13.800 -7.800 -20.200 -1.200 -3.300 -3.000 -7.800 -4.100 -10.000 -1.000 -2.200 -2.800 -6.700 -4.000 -10.000 -1.200 -3.300 -3.000 -8.000 -4.000 -10.500 -1.000 -2.500 -2.700 -6.800 -3.800 -9.500 -1.100 -2.800 -2.900 -7.300 -4.000 -10.000 -1.100 -2.800 -2.900 -7.300 -4.000 -10.000 -1.100 -2.800 -3.000 -7.700 -4.200 -11.000 -1.200 -3.300 -3.000 -7.800 -4.000 -10.000 -1.100 -2.200 -2.900 -6.700 -4.100 -10.000 -1.200 -3.300 -3.000 -8.300 -4.100 -11.000 -1.100 -2.800 -2.800 -7.000 -3.800 -9.500 -1.000 -2.500 -2.700 -6.800 -3.800 -9.500 -1.100 -2.800 -3.000 -7.700 -4.200 -11.000 -1.200 -3.300 -3.000 -7.800 -4.000 -10.000 -1.000 -2.200 -2.800 -6.700 -3.900 -10.000 -1.200 -3.300 -3.100 -7.700 -4.100 -9.700 -1.100 -2.000 -2.000 -4.400 -2.000 -5.200 0.000 -0.900 -0.900 -3.500 -1.900 -5.800 -1.000 -2.400 -2.800 -6.600 -3.900 -9.300 -1.100 -2.800 -2.900 -7.300 -4.000 -10.000 -1.100 -2.800 -3.000 -7.700 -4.200 -11.000 -1.200 -3.300 -3.000 -7.800 -4.000 -10.000 -1.100 -2.200 -2.900 -6.700 -4.000 -10.000 -1.200 -3.300 -2.800 -7.400 -3.600 -9.000 -0.700 -1.700 -2.000 -4.800 -2.800 -7.000 -0.700 -2.200 -2.300 -6.400 -3.500 -9.300 -1.200 -2.800 -3.000 -7.600 -4.200 -10.500 -1.200 -2.800 -2.800 -7.000 -3.500 -9.200 -0.800 -2.200 -2.100 -5.400 -2.800 -7.000 -0.800 -1.700 -2.400 -5.700 -3.600 -9.000 -1.100 -3.300 -2.900 -7.800 -4.000 -10.000 -1.000 -2.200 -2.800 -6.700 -4.000 -10.000 -1.200 -3.300 -3.000 -8.100 -4.100 -10.800 -1.000 -2.600 -2.800 -7.100 -4.000 -10.000 -1.200 -2.800 -3.000 -7.100 -4.000 -9.500 -1.000 -2.300 -1.900 -4.900 -1.900 -5.800 0.000 -0.800 -0.900 -3.200 -2.000 -5.200 -1.000 -2.000 -2.900 -6.400 -4.000 -9.700 -1.200 -3.300 -3.000 -7.700 -4.100 -9.700 -1.000 -2.000 -1.900 -4.400 -1.900 -5.200 0.000 -0.900 -0.900 -3.500 -1.900 -5.800 -2.300 -5.300 -4.500 -10.500 -12.000 -29.600 -1.000 -2.600 -2.800 -7.400 -4.000 -10.700 -1.200 -3.300 -3.000 -7.800 -4.100 -10.000 -1.000 -2.200 -2.800 -6.700 -4.000 -10.000 -1.200 -3.300 -3.000 -8.100 -4.100 -10.800 -1.000 -2.600 -2.800 -7.100 -4.000 -10.000 -1.200 -2.800 -3.000 -7.100 -4.000 -9.500 -1.000 -2.300 -1.900 -4.800 -1.900 -5.400 0.000 -0.600 -0.900 -2.900 -1.900 -5.200 -1.100 -2.300 -2.900 -6.800 -4.100 -10.100 -1.200 -3.300 -3.000 -7.800 -4.000 -10.000 -1.100 -2.200 -2.900 -6.700 -4.100 -10.000 -2.100 -6.000 -4.000 -10.800 -8.000 -20.800 -5.000 -12.400 -5.900 -14.500 -7.900 -20.200 -1.200 -3.300 -3.000 -7.800 -4.000 -10.000 -1.000 -2.200 -2.800 -6.700 -4.000 -10.000 -1.100 -3.300 -2.800 -7.400 -3.500 -9.000 -0.800 -1.700 -2.200 -5.000 -3.100 -7.500 -3.100 -8.800 -4.000 -10.800 -5.300 -12.400 -1.200 -1.500 -11.200 -1.600 -110.600 -1.600 -86.200 -0.000 -109.400 0.300 -110.200 1.200 z m 111.400 211.100 c 0.600 2.300 2.000 6.700 3.200 9.700 2.100 5.200 4.400 11.200 7.100 19.000 0.700 1.900 2.000 5.300 3.000 7.500 1.600 3.700 2.400 5.900 5.200 14.000 0.600 1.600 1.700 4.300 2.400 6.000 0.700 1.600 2.000 4.800 2.800 7.000 0.800 2.200 2.600 7.100 4.100 11.000 1.500 3.800 3.100 8.300 3.600 10.000 0.500 1.600 1.500 4.300 2.300 6.000 1.300 2.800 2.800 6.800 7.800 20.500 1.100 3.000 2.600 6.800 3.400 8.500 0.800 1.600 1.800 4.300 2.400 6.000 0.500 1.600 2.100 6.100 3.500 10.000 1.500 3.800 3.300 8.800 4.100 11.000 0.800 2.200 2.100 5.300 2.800 7.000 1.300 2.800 1.900 4.500 4.700 12.700 0.600 1.800 2.000 5.000 3.000 7.000 1.000 2.000 1.900 4.400 1.900 5.200 0.000 0.900 0.900 3.500 1.900 5.800 1.100 2.400 2.900 7.000 4.100 10.300 1.200 3.300 3.000 8.000 4.000 10.500 1.800 4.500 4.500 11.800 8.200 22.000 1.100 3.000 2.600 6.800 3.400 8.500 1.400 3.100 3.500 8.900 5.900 16.000 0.700 2.200 2.000 5.300 2.900 7.000 0.900 1.600 1.600 3.600 1.600 4.400 0.000 0.800 0.800 3.200 1.900 5.500 1.000 2.300 2.400 5.700 3.100 7.600 0.700 1.900 1.900 5.300 2.600 7.500 0.800 2.200 2.100 5.300 2.800 7.000 0.700 1.600 1.900 4.600 2.600 6.500 0.600 1.900 2.100 5.700 3.200 8.500 1.900 4.900 3.500 9.300 7.600 20.500 1.200 3.000 2.900 7.700 4.000 10.500 1.100 2.700 2.600 6.600 3.200 8.500 0.700 1.900 1.900 4.800 2.600 6.500 1.400 3.100 3.500 9.000 5.900 16.000 0.700 2.200 2.000 5.300 2.900 7.000 0.900 1.600 1.600 3.600 1.600 4.400 0.000 0.800 0.800 3.200 1.900 5.500 1.000 2.300 2.400 5.700 3.100 7.600 0.700 1.900 1.900 5.300 2.600 7.500 0.800 2.200 2.100 5.300 2.800 7.000 0.700 1.600 1.900 4.600 2.600 6.500 0.600 1.900 2.100 5.700 3.200 8.500 1.100 2.700 2.800 7.500 4.000 10.500 4.000 11.000 5.700 15.600 7.800 21.000 1.200 3.000 2.200 6.200 2.300 7.000 0.200 1.300 -20.100 1.600 -175.800 2.000 -138.300 0.400 -176.300 0.200 -177.400 -0.700 -1.500 -1.300 -0.400 -5.200 5.000 -17.100 1.000 -2.300 1.900 -5.000 1.900 -6.000 0.000 -1.000 0.600 -2.600 1.400 -3.700 0.700 -1.100 1.800 -3.600 2.400 -5.500 1.700 -5.700 4.900 -14.300 6.600 -17.500 0.900 -1.700 1.600 -3.600 1.600 -4.400 0.000 -0.800 0.800 -3.200 1.900 -5.500 1.000 -2.300 2.400 -5.700 3.100 -7.600 0.700 -1.900 1.900 -5.300 2.600 -7.500 0.800 -2.200 2.100 -5.400 2.800 -7.000 0.700 -1.700 1.900 -4.600 2.600 -6.500 0.600 -1.900 2.100 -5.800 3.200 -8.500 1.100 -2.800 2.800 -7.500 4.000 -10.500 4.100 -11.200 5.700 -15.600 7.600 -20.500 1.100 -2.800 2.600 -6.600 3.200 -8.500 0.700 -1.900 1.900 -4.900 2.600 -6.500 0.700 -1.700 2.000 -4.800 2.800 -7.000 0.700 -2.200 1.900 -5.600 2.600 -7.500 0.700 -1.900 2.100 -5.300 3.100 -7.600 1.100 -2.300 1.900 -4.700 1.900 -5.500 0.000 -0.800 0.700 -2.800 1.600 -4.400 0.900 -1.700 2.200 -4.800 2.900 -7.000 2.400 -7.000 4.500 -12.900 5.900 -16.000 0.700 -1.700 1.900 -4.600 2.600 -6.500 0.600 -1.900 2.100 -5.800 3.200 -8.500 1.100 -2.800 2.800 -7.500 4.000 -10.500 4.100 -11.200 5.700 -15.600 7.600 -20.500 1.100 -2.800 2.600 -6.600 3.200 -8.500 0.700 -1.900 1.900 -4.900 2.600 -6.500 0.700 -1.700 2.000 -4.800 2.800 -7.000 0.700 -2.200 1.900 -5.600 2.600 -7.500 0.700 -1.900 2.100 -5.300 3.100 -7.600 1.100 -2.300 1.900 -4.700 1.900 -5.500 0.000 -0.800 0.700 -2.800 1.600 -4.400 0.900 -1.700 2.200 -4.800 2.900 -7.000 2.400 -7.100 4.500 -12.900 5.900 -16.000 0.800 -1.700 2.300 -5.500 3.400 -8.500 3.700 -10.200 6.400 -17.500 8.200 -22.000 1.000 -2.500 2.800 -7.200 4.000 -10.500 1.200 -3.300 3.000 -7.900 4.100 -10.300 1.000 -2.300 1.900 -4.900 1.900 -5.800 0.000 -0.800 0.900 -3.200 1.900 -5.200 1.000 -2.000 2.400 -5.200 3.000 -7.000 2.800 -8.200 3.400 -9.900 4.700 -12.700 0.700 -1.700 2.000 -4.800 2.800 -7.000 0.800 -2.200 2.600 -7.200 4.100 -11.000 1.400 -3.900 3.000 -8.400 3.500 -10.000 0.600 -1.700 1.600 -4.400 2.400 -6.000 0.800 -1.700 2.300 -5.600 3.500 -8.800 5.300 -14.300 6.500 -17.500 8.700 -22.400 2.800 -6.100 4.500 -6.100 6.100 -0.000 z M 3321.60 477.90 c -0.800 1.200 -0.800 1072.000 0.000 1073.200 0.700 1.200 184.100 1.200 184.800 -0.000 0.400 -0.500 0.600 -169.900 0.600 -376.400 0.000 -325.000 0.200 -375.600 1.400 -376.600 1.200 -1.000 1.800 -0.700 3.300 1.600 1.000 1.500 4.700 6.800 8.300 11.800 3.600 4.900 8.200 11.500 10.300 14.500 3.600 5.200 9.600 13.800 19.700 28.000 7.700 10.800 15.300 21.600 20.900 29.700 3.000 4.300 6.900 9.800 8.700 12.300 1.800 2.500 5.800 8.100 8.900 12.500 3.000 4.400 7.300 10.500 9.500 13.500 2.200 3.000 6.500 9.100 9.500 13.500 3.100 4.400 7.200 10.200 9.200 13.000 2.100 2.700 5.500 7.700 7.800 11.000 2.200 3.300 7.200 10.300 11.000 15.500 3.900 5.200 8.700 12.000 10.800 15.000 6.600 9.700 10.500 15.400 15.000 21.500 2.500 3.300 6.300 8.700 8.600 12.000 2.200 3.300 5.900 8.500 8.100 11.500 5.700 8.000 9.700 13.600 15.200 21.500 5.100 7.300 13.000 18.500 20.800 29.500 7.700 10.800 15.300 21.600 20.900 29.700 3.000 4.300 6.900 9.800 8.700 12.300 1.800 2.500 5.800 8.100 8.900 12.500 3.000 4.400 7.300 10.500 9.500 13.500 2.200 3.000 6.500 9.100 9.500 13.500 3.100 4.400 7.200 10.200 9.200 13.000 2.100 2.700 5.500 7.700 7.800 11.000 2.200 3.300 7.200 10.300 11.000 15.500 3.900 5.200 8.700 12.000 10.800 15.000 7.800 11.600 13.000 18.900 22.200 31.400 1.700 2.300 5.200 7.200 7.800 11.100 2.700 3.800 6.600 9.500 8.800 12.500 2.200 3.000 6.000 8.400 8.500 12.000 4.100 6.000 9.300 13.400 20.400 29.000 7.700 10.800 15.300 21.600 20.900 29.700 3.000 4.300 6.900 9.800 8.800 12.300 1.800 2.500 5.700 8.100 8.800 12.500 3.000 4.400 7.300 10.500 9.500 13.500 2.200 3.000 6.500 9.100 9.500 13.500 3.100 4.400 7.400 10.500 9.600 13.500 2.200 3.000 5.100 7.100 6.500 9.000 4.500 6.600 5.900 8.500 12.400 17.500 3.600 4.900 8.200 11.500 10.300 14.500 7.800 11.600 13.000 18.900 22.200 31.400 1.700 2.300 5.200 7.200 7.800 11.100 2.700 3.800 6.600 9.500 8.800 12.500 2.200 3.000 6.000 8.400 8.500 12.000 10.800 15.800 15.800 22.800 19.100 26.700 l 3.400 4.300 93.300 -0.000 c 71.100 -0.000 93.500 -0.300 94.400 -1.200 0.900 -0.900 1.200 -121.200 1.200 -535.300 0.000 -293.700 -0.300 -535.000 -0.600 -536.300 l -0.600 -2.200 -91.800 -0.000 -91.800 -0.000 -0.600 2.200 c -0.300 1.300 -0.600 171.000 -0.600 377.300 0.000 256.500 -0.300 375.100 -1.000 375.300 -1.300 0.500 -3.500 -2.100 -10.500 -12.300 -3.000 -4.400 -7.300 -10.500 -9.500 -13.500 -2.200 -3.000 -6.500 -9.100 -9.500 -13.500 -3.100 -4.400 -7.400 -10.500 -9.600 -13.500 -2.200 -3.000 -6.000 -8.400 -8.500 -12.000 -4.600 -6.600 -12.500 -17.800 -20.200 -28.600 -2.300 -3.200 -5.800 -8.200 -7.700 -10.900 -1.900 -2.800 -4.900 -7.000 -6.700 -9.500 -3.200 -4.300 -12.200 -17.000 -15.600 -22.000 -0.900 -1.400 -4.600 -6.600 -8.200 -11.500 -3.600 -5.000 -8.200 -11.500 -10.300 -14.500 -3.600 -5.200 -9.600 -13.800 -19.700 -28.000 -7.700 -10.800 -15.300 -21.600 -20.900 -29.700 -3.000 -4.300 -6.900 -9.800 -8.700 -12.300 -1.800 -2.500 -5.800 -8.100 -8.900 -12.500 -3.000 -4.400 -7.300 -10.500 -9.500 -13.500 -2.200 -3.000 -6.500 -9.100 -9.500 -13.500 -3.100 -4.400 -7.200 -10.300 -9.200 -13.000 -2.100 -2.800 -5.500 -7.700 -7.800 -11.000 -2.200 -3.300 -7.200 -10.300 -11.000 -15.500 -3.900 -5.200 -8.700 -12.000 -10.800 -15.000 -6.600 -9.700 -10.500 -15.400 -15.000 -21.500 -2.500 -3.300 -6.300 -8.700 -8.600 -12.000 -2.200 -3.300 -5.900 -8.500 -8.100 -11.500 -5.700 -8.000 -9.700 -13.600 -15.200 -21.500 -5.100 -7.300 -13.000 -18.500 -20.800 -29.500 -7.700 -10.800 -15.300 -21.600 -20.900 -29.700 -3.000 -4.300 -6.900 -9.800 -8.800 -12.300 -1.800 -2.500 -5.700 -8.100 -8.800 -12.500 -3.000 -4.400 -7.300 -10.500 -9.500 -13.500 -2.200 -3.000 -6.500 -9.100 -9.500 -13.500 -3.100 -4.400 -7.400 -10.500 -9.600 -13.500 -2.200 -3.000 -5.100 -7.100 -6.500 -9.000 -4.500 -6.600 -5.900 -8.500 -12.400 -17.500 -3.600 -5.000 -8.200 -11.500 -10.300 -14.500 -7.800 -11.600 -13.000 -18.900 -22.200 -31.400 -1.700 -2.300 -5.200 -7.300 -7.800 -11.100 -2.700 -3.900 -6.600 -9.500 -8.800 -12.500 -2.200 -3.000 -6.000 -8.400 -8.500 -12.000 -4.100 -6.000 -9.300 -13.400 -20.400 -29.000 -2.500 -3.500 -7.100 -10.000 -10.200 -14.400 -3.100 -4.500 -7.200 -10.100 -8.900 -12.600 -1.800 -2.500 -5.500 -7.700 -8.100 -11.500 -4.700 -6.700 -11.300 -16.100 -20.800 -29.500 -2.500 -3.500 -6.700 -9.500 -9.500 -13.500 -2.700 -3.900 -7.000 -9.900 -9.500 -13.300 l -4.500 -6.100 -94.200 -0.100 c -54.900 -0.000 -94.400 0.400 -94.700 0.900 z M 4391.60 479.20 c -0.300 1.300 -0.600 40.100 -0.600 86.400 0.000 64.000 0.300 84.300 1.200 85.200 0.900 0.900 36.000 1.200 151.800 1.200 116.000 -0.000 150.900 0.300 151.800 1.200 0.900 0.900 1.200 101.600 1.200 449.200 0.000 246.400 0.400 448.400 0.800 448.800 0.400 0.400 42.400 0.700 93.300 0.600 l 92.400 -0.300 0.500 -449.500 0.500 -449.500 150.900 -0.300 c 109.500 -0.100 151.300 -0.500 152.300 -1.300 1.100 -0.900 1.300 -15.900 1.300 -85.300 0.000 -46.200 -0.300 -85.100 -0.600 -86.400 l -0.600 -2.200 -397.800 -0.000 -397.800 -0.000 -0.600 2.200 z M 5347.60 479.20 c -0.300 1.300 -0.600 242.600 -0.600 536.400 0.000 414.000 0.300 534.300 1.200 535.200 0.900 0.900 80.800 1.200 353.500 1.200 304.200 -0.000 352.300 -0.200 353.000 -1.400 0.400 -0.800 0.600 -40.100 0.300 -87.300 l -0.500 -85.800 -260.500 -0.500 c -143.300 -0.300 -260.600 -0.600 -260.700 -0.800 -0.200 -0.100 -0.300 -62.300 -0.300 -138.100 0.000 -125.400 0.100 -137.900 1.600 -138.500 0.900 -0.300 104.700 -0.600 230.700 -0.600 126.000 -0.000 229.400 -0.300 229.900 -0.800 0.400 -0.400 0.700 -39.700 0.600 -87.300 l -0.300 -86.400 -230.500 -0.300 c -126.700 -0.100 -230.800 -0.600 -231.200 -1.000 -0.900 -0.900 -1.200 -268.800 -0.300 -270.300 0.400 -0.500 101.400 -0.900 256.500 -0.900 220.700 -0.000 256.000 -0.200 256.700 -1.400 0.400 -0.800 0.600 -40.100 0.300 -87.300 l -0.500 -85.800 -349.100 -0.300 -349.200 -0.200 -0.600 2.200 z" fill="#FFFFFF" fill-rule="evenodd"/>
</svg>
